<?xml version="1.0" encoding="utf-8"?>
<!-- Generator: Adobe Illustrator 23.1.1, SVG Export Plug-In . SVG Version: 6.00 Build 0)  -->
<svg version="1.1" id="Layer_1" xmlns="http://www.w3.org/2000/svg" xmlns:xlink="http://www.w3.org/1999/xlink" x="0px" y="0px"
	 viewBox="0 0 1631.02 265.82" style="enable-background:new 0 0 1631.02 265.82;" xml:space="preserve">
<style type="text/css">
	.st0{fill:#231F20;}
	.st1{fill:#231F20;stroke:#231F20;stroke-width:3;stroke-miterlimit:10;}
	.st2{fill:#FFFFFF;}
	.st3{fill:#C49852;}
	.st4{fill:#364430;}
	.st5{fill:#640C0D;}
	.st6{fill:none;stroke:#EC1C24;stroke-miterlimit:10;}
	.st7{fill:#FFFFFF;stroke:#FFFFFF;stroke-width:11;stroke-miterlimit:10;}
	.st8{fill:#231F20;stroke:#231F20;stroke-width:11;stroke-miterlimit:10;}
</style>
<g>
	<g>
		<path class="st0" d="M186.62,169.3l-8.65-8.62c-0.29-0.29-0.76-0.29-1.05,0l-38.48,38.35c-0.91,0.91-1.41,2.11-1.41,3.4
			c0,1.28,0.5,2.49,1.41,3.4l5.77,5.75c0.15,0.14,0.34,0.22,0.53,0.22c0.19,0,0.38-0.07,0.53-0.22l41.36-41.23
			C186.91,170.06,186.91,169.59,186.62,169.3z"/>
		<path class="st0" d="M204.04,186.66l-8.65-8.62c-0.14-0.14-0.33-0.22-0.53-0.22c-0.2,0-0.39,0.08-0.53,0.22l-41.36,41.23
			c-0.29,0.29-0.29,0.76,0,1.05l5.77,5.75c0.94,0.94,2.17,1.4,3.41,1.4c1.23,0,2.47-0.47,3.41-1.4l38.48-38.35
			C204.33,187.42,204.33,186.95,204.04,186.66z"/>
		<path class="st0" d="M195.24,143.65c-0.29-0.29-0.76-0.29-1.05,0l-8.65,8.62c-0.14,0.14-0.22,0.33-0.22,0.52s0.08,0.39,0.22,0.52
			l51.45,51.28l-40.16,40.03l-7.63-7.6l32.16-32.05c0.14-0.14,0.22-0.33,0.22-0.52c0-0.2-0.08-0.39-0.22-0.52l-8.65-8.62
			c-0.29-0.29-0.76-0.29-1.05,0l-41.36,41.23c-0.29,0.29-0.29,0.76,0,1.05l8.65,8.62c0.05,0.05,0.11,0.09,0.18,0.13l14.3,14.25
			c0.94,0.93,2.16,1.41,3.39,1.41c1.03,0,2.06-0.33,2.94-1c0.09-0.04,0.18-0.09,0.26-0.17L252.98,208c0.91-0.91,1.41-2.11,1.41-3.4
			c0-1.28-0.5-2.49-1.41-3.4L195.24,143.65z"/>
	</g>
	<g>
		<path class="st0" d="M228.37,127.54l-8.62-8.65c-0.29-0.29-0.29-0.76,0-1.05l38.35-38.48c0.91-0.91,2.11-1.41,3.4-1.41
			s2.49,0.5,3.4,1.41l5.75,5.77c0.14,0.15,0.22,0.34,0.22,0.53c0,0.19-0.07,0.38-0.22,0.53l-41.23,41.36
			C229.13,127.83,228.66,127.83,228.37,127.54z"/>
		<path class="st0" d="M245.74,144.96l-8.62-8.65c-0.14-0.14-0.22-0.33-0.22-0.53c0-0.2,0.08-0.39,0.22-0.53l41.23-41.36
			c0.29-0.29,0.76-0.29,1.05,0l5.75,5.77c0.94,0.94,1.4,2.17,1.4,3.41c0,1.23-0.47,2.47-1.4,3.41l-38.35,38.48
			C246.5,145.25,246.03,145.25,245.74,144.96z"/>
		<path class="st0" d="M202.73,136.16c-0.29-0.29-0.29-0.76,0-1.05l8.62-8.65c0.14-0.14,0.33-0.22,0.52-0.22
			c0.2,0,0.39,0.08,0.52,0.22l51.28,51.45l40.03-40.16l-7.6-7.63l-32.05,32.16c-0.14,0.14-0.33,0.22-0.52,0.22s-0.39-0.08-0.52-0.22
			l-8.62-8.65c-0.29-0.29-0.29-0.76,0-1.05l41.23-41.36c0.29-0.29,0.76-0.29,1.05,0l8.62,8.65c0.05,0.05,0.09,0.11,0.13,0.18
			l14.25,14.3c0.93,0.94,1.41,2.16,1.41,3.39c0,1.03-0.33,2.06-1,2.94c-0.04,0.09-0.09,0.18-0.17,0.26l-52.81,52.98
			c-0.91,0.91-2.11,1.41-3.4,1.41c-1.28,0-2.49-0.5-3.4-1.41L202.73,136.16z"/>
	</g>
	<g>
		<path class="st0" d="M117.71,100.38l-8.65-8.62c-0.29-0.29-0.76-0.29-1.05,0l-38.48,38.35c-0.91,0.91-1.41,2.11-1.41,3.4
			c0,1.28,0.5,2.49,1.41,3.4l5.77,5.75c0.15,0.14,0.34,0.22,0.53,0.22c0.19,0,0.38-0.07,0.53-0.22l41.36-41.23
			C118,101.14,118,100.67,117.71,100.38z"/>
		<path class="st0" d="M135.13,117.75l-8.65-8.62c-0.14-0.14-0.33-0.22-0.53-0.22s-0.39,0.08-0.53,0.22l-41.36,41.23
			c-0.29,0.29-0.29,0.76,0,1.05l5.77,5.75c0.94,0.94,2.17,1.4,3.41,1.4c1.23,0,2.47-0.47,3.41-1.4l38.48-38.35
			C135.42,118.51,135.42,118.04,135.13,117.75z"/>
		<path class="st0" d="M126.33,74.74c-0.29-0.29-0.76-0.29-1.05,0l-8.65,8.62c-0.14,0.14-0.22,0.33-0.22,0.52s0.08,0.39,0.22,0.52
			l51.45,51.28l-40.16,40.03l-7.63-7.6l32.16-32.05c0.14-0.14,0.22-0.33,0.22-0.52c0-0.2-0.08-0.39-0.22-0.52l-8.65-8.62
			c-0.29-0.29-0.76-0.29-1.05,0l-41.36,41.23c-0.29,0.29-0.29,0.76,0,1.05l8.65,8.62c0.05,0.05,0.11,0.09,0.18,0.13l14.3,14.25
			c0.94,0.93,2.16,1.41,3.39,1.41c1.03,0,2.06-0.33,2.94-1c0.09-0.04,0.18-0.09,0.26-0.17l52.98-52.81c0.91-0.91,1.41-2.11,1.41-3.4
			c0-1.28-0.5-2.49-1.41-3.4L126.33,74.74z"/>
	</g>
	<g>
		<path class="st0" d="M159.46,58.63l-8.62-8.65c-0.29-0.29-0.29-0.76,0-1.05l38.35-38.48c0.91-0.91,2.11-1.41,3.4-1.41
			s2.49,0.5,3.4,1.41l5.75,5.77c0.14,0.15,0.22,0.34,0.22,0.53s-0.07,0.38-0.22,0.53l-41.23,41.36
			C160.22,58.92,159.75,58.92,159.46,58.63z"/>
		<path class="st0" d="M176.83,76.05l-8.62-8.65c-0.14-0.14-0.22-0.33-0.22-0.53s0.08-0.39,0.22-0.53l41.23-41.36
			c0.29-0.29,0.76-0.29,1.05,0l5.75,5.77c0.94,0.94,1.4,2.17,1.4,3.41c0,1.23-0.47,2.47-1.4,3.41l-38.35,38.48
			C177.59,76.34,177.12,76.34,176.83,76.05z"/>
		<path class="st0" d="M133.82,67.25c-0.29-0.29-0.29-0.76,0-1.05l8.62-8.65c0.14-0.14,0.33-0.22,0.52-0.22
			c0.2,0,0.39,0.08,0.52,0.22L194.77,109l40.03-40.16l-7.6-7.63l-32.05,32.16c-0.14,0.14-0.33,0.22-0.52,0.22s-0.39-0.08-0.52-0.22
			l-8.62-8.65c-0.29-0.29-0.29-0.76,0-1.05L226.7,42.3c0.29-0.29,0.76-0.29,1.05,0l8.62,8.65c0.05,0.05,0.09,0.11,0.13,0.18
			l14.25,14.3c0.93,0.94,1.41,2.16,1.41,3.39c0,1.03-0.33,2.06-1,2.94c-0.04,0.09-0.09,0.18-0.17,0.26l-52.81,52.98
			c-0.91,0.91-2.11,1.41-3.4,1.41c-1.28,0-2.49-0.5-3.4-1.41L133.82,67.25z"/>
	</g>
</g>
<g>
	<path class="st8" d="M424.05,153.62h-47.26v17.7c0,4.11,1.05,7.27,3.16,9.49c2.11,2.23,4.95,3.34,8.54,3.34
		c4.52,0,7.52-1.45,9.01-4.36c1.48-2.91,2.38-5.81,2.69-8.72h23.87c0,11.46-3.2,20.7-9.59,27.71c-3.12,3.59-6.87,6.41-11.23,8.47
		c-4.37,2.05-9.28,3.08-14.74,3.08c-7.49,0-13.85-1.71-19.07-5.13c-5.23-3.42-9.24-7.95-12.05-13.6c-1.72-3.42-2.89-7.35-3.51-11.8
		c-0.62-4.45-0.94-9.32-0.94-14.63v-42.85c0-5.3,0.31-10.17,0.94-14.63c0.62-4.45,1.79-8.38,3.51-11.8
		c2.81-5.65,6.82-10.18,12.05-13.6c5.22-3.42,11.58-5.13,19.07-5.13c5.46,0,10.41,1.03,14.86,3.08s8.23,4.88,11.35,8.47
		c6.24,7.7,9.36,17.36,9.36,29V153.62z M376.79,133.09h23.4v-14.88c0-4.96-1.05-8.68-3.16-11.16c-2.11-2.48-4.95-3.72-8.54-3.72
		c-3.59,0-6.43,1.24-8.54,3.72c-2.11,2.48-3.16,6.2-3.16,11.16V133.09z"/>
	<path class="st8" d="M453.3,208.79V78.7h23.87v12.57h0.47c2.49-4.11,5.5-7.48,9.01-10.13c3.51-2.65,7.99-3.98,13.45-3.98
		c5.15,0,9.44,1.37,12.87,4.11c3.43,2.74,6.24,5.73,8.42,8.98c2.96-3.59,6.24-6.67,9.83-9.24c3.59-2.57,8.58-3.85,14.97-3.85
		c2.96,0,6,0.56,9.13,1.67c3.12,1.11,5.93,2.95,8.42,5.52c2.49,2.57,4.52,5.86,6.08,9.88c1.56,4.02,2.34,8.94,2.34,14.75v99.81
		H548.3v-90.06c0-4.79-1.02-8.55-3.04-11.29c-2.03-2.73-4.91-4.11-8.66-4.11c-4.53,0-7.64,1.54-9.36,4.62
		c-1.72,3.08-2.57,7.53-2.57,13.34v87.5H500.8v-90.06c0-4.79-1.02-8.55-3.04-11.29c-2.03-2.73-4.91-4.11-8.66-4.11
		c-4.53,0-7.65,1.54-9.36,4.62c-1.72,3.08-2.57,7.53-2.57,13.34v87.5H453.3z"/>
	<path class="st8" d="M603.51,208.79V78.7h23.87v12.57h0.47c2.49-4.11,5.5-7.48,9.01-10.13c3.51-2.65,7.99-3.98,13.45-3.98
		c5.15,0,9.44,1.37,12.87,4.11c3.43,2.74,6.24,5.73,8.42,8.98c2.96-3.59,6.24-6.67,9.83-9.24c3.59-2.57,8.58-3.85,14.97-3.85
		c2.96,0,6,0.56,9.13,1.67c3.12,1.11,5.93,2.95,8.42,5.52c2.49,2.57,4.52,5.86,6.08,9.88c1.56,4.02,2.34,8.94,2.34,14.75v99.81
		h-23.87v-90.06c0-4.79-1.02-8.55-3.04-11.29c-2.03-2.73-4.91-4.11-8.66-4.11c-4.53,0-7.64,1.54-9.36,4.62
		c-1.72,3.08-2.57,7.53-2.57,13.34v87.5h-23.87v-90.06c0-4.79-1.02-8.55-3.04-11.29c-2.03-2.73-4.91-4.11-8.66-4.11
		c-4.53,0-7.65,1.54-9.36,4.62c-1.72,3.08-2.57,7.53-2.57,13.34v87.5H603.51z"/>
	<path class="st8" d="M822.75,153.62h-47.26v17.7c0,4.11,1.05,7.27,3.16,9.49c2.11,2.23,4.95,3.34,8.54,3.34
		c4.52,0,7.52-1.45,9.01-4.36c1.48-2.91,2.38-5.81,2.69-8.72h23.87c0,11.46-3.2,20.7-9.59,27.71c-3.12,3.59-6.87,6.41-11.23,8.47
		c-4.37,2.05-9.28,3.08-14.74,3.08c-7.49,0-13.85-1.71-19.07-5.13c-5.23-3.42-9.24-7.95-12.05-13.6c-1.72-3.42-2.89-7.35-3.51-11.8
		c-0.62-4.45-0.94-9.32-0.94-14.63v-42.85c0-5.3,0.31-10.17,0.94-14.63c0.62-4.45,1.79-8.38,3.51-11.8
		c2.81-5.65,6.82-10.18,12.05-13.6c5.22-3.42,11.58-5.13,19.07-5.13c5.46,0,10.41,1.03,14.86,3.08s8.23,4.88,11.35,8.47
		c6.24,7.7,9.36,17.36,9.36,29V153.62z M775.49,133.09h23.4v-14.88c0-4.96-1.05-8.68-3.16-11.16c-2.11-2.48-4.95-3.72-8.54-3.72
		c-3.59,0-6.43,1.24-8.54,3.72c-2.11,2.48-3.16,6.2-3.16,11.16V133.09z"/>
	<path class="st8" d="M850.6,26.09h23.87v146c0,4.96,0.82,8.34,2.46,10.13c1.64,1.8,4.72,2.95,9.24,3.46v24.63
		c-5.46,0-10.38-0.47-14.74-1.41c-4.37-0.94-8.11-2.78-11.23-5.52c-3.12-2.57-5.5-6.2-7.14-10.91c-1.64-4.7-2.46-10.91-2.46-18.6
		V26.09z"/>
	<path class="st8" d="M907.22,52.27V26.09h23.87v26.17H907.22z M907.22,208.79V78.7h23.87v130.09H907.22z"/>
	<path class="st8" d="M1007.59,208.79v-13.34h-0.47c-3.12,4.79-6.28,8.47-9.48,11.03c-3.2,2.57-7.69,3.85-13.45,3.85
		c-2.81,0-5.66-0.47-8.54-1.41c-2.89-0.94-5.66-2.69-8.31-5.26c-2.65-2.39-4.8-5.86-6.43-10.39c-1.64-4.53-2.46-10.39-2.46-17.58
		c0-7.35,0.54-13.81,1.64-19.37c1.09-5.56,3.12-10.22,6.08-13.98c2.81-3.59,6.63-6.29,11.46-8.08c4.83-1.8,11-2.69,18.48-2.69
		c0.78,0,1.64,0,2.57,0c0.94,0,1.79,0.09,2.57,0.26c0.78,0.17,1.71,0.26,2.81,0.26c1.09,0,2.26,0.09,3.51,0.26v-13.6
		c0-4.45-0.86-8.12-2.57-11.03c-1.72-2.91-4.84-4.36-9.36-4.36c-3.12,0-5.97,1.11-8.54,3.33c-2.57,2.23-4.25,5.48-5.03,9.75h-23.16
		c0.62-11.63,4.21-21.04,10.76-28.23c3.12-3.42,6.86-6.11,11.23-8.08c4.37-1.96,9.28-2.95,14.74-2.95c4.99,0,9.67,0.86,14.04,2.57
		c4.37,1.71,8.19,4.28,11.46,7.7c3.12,3.42,5.62,7.7,7.49,12.83s2.81,11.12,2.81,17.96v90.58H1007.59z M1007.59,152.85
		c-2.65-0.51-4.84-0.77-6.55-0.77c-5.15,0-9.56,1.33-13.22,3.98c-3.67,2.65-5.5,7.49-5.5,14.5c0,4.96,1.09,8.98,3.28,12.06
		c2.18,3.08,5.22,4.62,9.13,4.62c4.05,0,7.21-1.45,9.48-4.36c2.26-2.91,3.39-7.01,3.39-12.32V152.85z"/>
</g>
<g>
	<g>
		<path class="st0" d="M1073.31,226.9c-0.38,3.03,0.25,5.9,1.88,8.59c1.63,2.69,4.47,4.04,8.53,4.04c3.9,0,6.94-1.31,9.11-3.92
			c2.18-2.61,3.62-5.94,4.33-9.98l4.46-25.27h-0.47c-3.4,4.21-7.13,7.46-11.19,9.73c-4.07,2.27-8.52,3.41-13.35,3.41
			c-9.98,0-16.21-4.04-18.69-12.13c-0.9-2.86-1.29-6.4-1.17-10.61c0.12-4.21,0.8-9.86,2.05-16.93l8.6-48.77
			c1.63-9.26,3.07-16.09,4.31-20.47c2.42-8.42,7.2-14.74,14.34-18.95c3.35-2.19,7.99-3.29,13.92-3.29c2.96,0,5.44,0.34,7.43,1.01
			c1.99,0.67,3.73,1.6,5.24,2.78c1.51,1.18,2.82,2.57,3.95,4.17c1.12,1.6,2.3,3.33,3.53,5.18l2.05-11.62h23.87l-25.35,143.78
			c-0.77,4.38-2.22,8.8-4.33,13.27c-2.11,4.46-4.97,8.47-8.55,12c-3.62,3.7-7.89,6.7-12.81,8.97c-4.93,2.27-10.51,3.41-16.75,3.41
			c-3.59,0-7.22-0.63-10.9-1.89c-3.68-1.26-6.89-3.41-9.63-6.44c-2.93-2.87-5.18-6.7-6.75-11.5c-1.57-4.8-2.08-10.99-1.52-18.57
			H1073.31z M1082.89,172.57c-0.71,4.04-0.52,7.58,0.59,10.61s3.91,4.55,8.44,4.55c3.43,0,6.51-1.3,9.23-3.92
			c2.72-2.61,4.44-5.94,5.15-9.98l8.78-49.78c0.83-4.71,0.42-8.55-1.25-11.5c-1.67-2.95-4.29-4.42-7.88-4.42
			c-4.06,0-7.3,1.6-9.74,4.8c-2.44,3.2-4.12,7.42-5.04,12.63L1082.89,172.57z"/>
		<path class="st0" d="M1143.09,211.99l22.59-128.12h23.87l-2.41,13.64c5.66-4.71,11.08-8.42,16.23-11.12
			c5.15-2.69,11.16-4.04,18.03-4.04l-4.81,27.29c-2.16-1.01-4.49-1.52-6.99-1.52c-2.5,0-5.27,0.46-8.32,1.39
			c-3.05,0.93-5.94,2.49-8.66,4.67c-2.88,2.19-5.42,5.05-7.6,8.59c-2.19,3.54-3.74,7.92-4.66,13.14l-13.41,76.06H1143.09z"/>
		<path class="st0" d="M1219.64,126.83c0.92-5.22,2.08-10.02,3.47-14.4c1.39-4.38,3.25-8.25,5.56-11.62
			c3.79-5.56,8.59-10.02,14.41-13.39c5.82-3.37,12.47-5.05,19.96-5.05c7.49,0,13.54,1.69,18.18,5.05c4.63,3.37,7.86,7.83,9.69,13.39
			c1.12,3.37,1.61,7.25,1.46,11.62c-0.15,4.38-0.68,9.18-1.6,14.4l-7.44,42.2c-0.92,5.22-2.08,10.03-3.48,14.4
			c-1.4,4.38-3.25,8.26-5.56,11.62c-3.79,5.56-8.59,10.02-14.41,13.39c-5.82,3.37-12.47,5.05-19.96,5.05
			c-7.49,0-13.55-1.68-18.18-5.05c-4.63-3.37-7.86-7.83-9.69-13.39c-1.12-3.37-1.61-7.24-1.46-11.62c0.15-4.38,0.68-9.18,1.6-14.4
			L1219.64,126.83z M1235.36,173.07c-0.86,4.89-0.46,8.55,1.22,10.99c1.68,2.44,4.3,3.67,7.9,3.67c3.59,0,6.65-1.22,9.19-3.67
			c2.54-2.44,4.23-6.1,5.1-10.99l8.87-50.29c0.86-4.88,0.45-8.55-1.22-10.99c-1.68-2.44-4.31-3.66-7.89-3.66
			c-3.59,0-6.65,1.22-9.19,3.66c-2.54,2.44-4.24,6.11-5.1,10.99L1235.36,173.07z"/>
		<path class="st0" d="M1387.26,83.87l-22.59,128.12h-23.87l2.18-12.38h-0.47c-3.21,4.04-6.8,7.37-10.77,9.98s-8.69,3.92-14.14,3.92
			c-2.96,0-5.83-0.55-8.6-1.64c-2.77-1.09-5.1-2.91-7-5.43c-1.89-2.53-3.19-5.77-3.9-9.73c-0.71-3.96-0.55-8.8,0.46-14.53
			l17.33-98.3h23.87l-15.64,88.7c-0.83,4.72-0.47,8.43,1.08,11.12c1.55,2.7,4.2,4.04,7.94,4.04c4.52,0,7.91-1.52,10.16-4.55
			c2.25-3.03,3.88-7.41,4.89-13.14l15.19-86.17H1387.26z"/>
		<path class="st0" d="M1375.19,263.79l31.72-179.92h23.87l-2.05,11.62c3.61-3.7,7.21-6.82,10.77-9.35
			c3.57-2.53,8.31-3.79,14.24-3.79c9.83,0,16.05,4.04,18.69,12.13c0.9,2.87,1.29,6.4,1.17,10.61c-0.12,4.21-0.8,9.85-2.05,16.93
			l-8.6,48.77c-1.66,9.44-3.1,16.26-4.31,20.47c-2.42,8.43-7.13,14.74-14.11,18.95c-3.51,2.19-8.22,3.29-14.15,3.29
			c-4.68,0-8.65-1.14-11.92-3.41c-3.27-2.27-5.85-5.52-7.76-9.73h-0.47l-11.18,63.43H1375.19z M1447.06,125.57
			c0.92-5.22,0.73-9.43-0.58-12.63c-1.31-3.2-3.99-4.8-8.04-4.8c-3.59,0-6.74,1.48-9.44,4.42c-2.71,2.95-4.47,6.78-5.3,11.5
			l-8.78,49.78c-0.71,4.04-0.17,7.37,1.63,9.98c1.8,2.61,4.42,3.92,7.85,3.92c4.52,0,7.87-1.52,10.04-4.55
			c2.17-3.03,3.61-6.57,4.33-10.61L1447.06,125.57z"/>
	</g>
</g>
</svg>
