<svg xml:space="preserve" style="max-height: 500px" viewBox="79.20863711999999 5.588344072 255.97039999999998 255.97039999999998" y="0px" x="0px" xmlns:xlink="http://www.w3.org/1999/xlink" xmlns="http://www.w3.org/2000/svg" id="Layer_1" version="1.1" width="255.97039999999998" height="255.97039999999998">
<style type="text/css">
	.st0{fill:#231F20;}
	.st1{fill:#231F20;stroke:#231F20;stroke-width:3;stroke-miterlimit:10;}
	.st2{fill:#FFFFFF;}
	.st3{fill:#C49852;}
	.st4{fill:#364430;}
	.st5{fill:#640C0D;}
	.st6{fill:#C49852;stroke:#C49852;stroke-miterlimit:10;}
	.st7{fill:#FFFFFF;stroke:#FFFFFF;stroke-width:2.0201;stroke-miterlimit:10;}
	.st8{fill:#FFFFFF;stroke:#FFFFFF;stroke-miterlimit:10;}
	.st9{fill:none;stroke:#EC1C24;stroke-miterlimit:10;}
	.st10{fill:#FFFFFF;stroke:#FFFFFF;stroke-width:11;stroke-miterlimit:10;}
	.st11{fill:#231F20;stroke:#231F20;stroke-width:11;stroke-miterlimit:10;}
</style>
<g>
	<path d="M32.68,359.86V272.8h39.13v11.74h-26v25.55h22.65v11.74H45.81v25.56h26v12.47H32.68z" class="st0"/>
	<path d="M80.31,359.86V272.8h12.61l16.86,46.1h0.26l16.73-46.1h12.74v87.06h-13.13v-52.95h-0.26l-13,37.42h-6.56&#10;&#9;&#9;l-12.87-37.42h-0.26v52.95H80.31z" class="st0"/>
	<path d="M151.87,359.86V272.8h12.61l16.86,46.1h0.26l16.73-46.1h12.74v87.06h-13.13v-52.95h-0.26l-13,37.42h-6.56&#10;&#9;&#9;l-12.87-37.42H165v52.95H151.87z" class="st0"/>
	<path d="M223.43,359.86V272.8h39.13v11.74h-26v25.55h22.65v11.74h-22.65v25.56h26v12.47H223.43z" class="st0"/>
	<path d="M271.06,359.86V272.8h13.13v74.59h26v12.47H271.06z" class="st0"/>
	<path d="M319.07,359.86V272.8h13.13v87.06H319.07z" class="st0"/>
	<path d="M339.02,359.86l20.46-87.06h10.94l20.46,87.06h-13.13l-3.86-18.71h-17.89l-3.86,18.71H339.02z M371.45,329.41&#10;&#9;&#9;l-6.44-31.55h-0.26l-6.44,31.55H371.45z" class="st0"/>
</g>
<g>
	<g>
		<path d="M199.2,167.2l-8.65-8.62c-0.29-0.29-0.76-0.29-1.05,0l-38.48,38.35c-0.91,0.91-1.41,2.11-1.41,3.4&#10;&#9;&#9;&#9;s0.5,2.49,1.41,3.4l5.77,5.75c0.15,0.14,0.34,0.22,0.53,0.22s0.38-0.07,0.53-0.22l41.36-41.23&#10;&#9;&#9;&#9;C199.49,167.96,199.49,167.49,199.2,167.2z" class="st0"/>
		<path d="M216.62,184.56l-8.65-8.62c-0.14-0.14-0.33-0.22-0.53-0.22c-0.2,0-0.39,0.08-0.53,0.22l-41.36,41.23&#10;&#9;&#9;&#9;c-0.29,0.29-0.29,0.76,0,1.05l5.77,5.75c0.94,0.94,2.17,1.4,3.41,1.4c1.23,0,2.47-0.47,3.41-1.4l38.48-38.35&#10;&#9;&#9;&#9;C216.91,185.32,216.91,184.85,216.62,184.56z" class="st0"/>
		<path d="M207.82,141.56c-0.29-0.29-0.76-0.29-1.05,0l-8.65,8.62c-0.14,0.14-0.22,0.33-0.22,0.52&#10;&#9;&#9;&#9;c0,0.2,0.08,0.39,0.22,0.52l51.45,51.28l-40.16,40.03l-7.63-7.6l32.16-32.05c0.14-0.14,0.22-0.33,0.22-0.52s-0.08-0.39-0.22-0.52&#10;&#9;&#9;&#9;l-8.65-8.62c-0.29-0.29-0.76-0.29-1.05,0l-41.36,41.23c-0.29,0.29-0.29,0.76,0,1.05l8.65,8.62c0.05,0.05,0.11,0.09,0.18,0.13&#10;&#9;&#9;&#9;l14.3,14.25c0.94,0.93,2.16,1.41,3.39,1.41c1.03,0,2.06-0.33,2.94-1c0.09-0.04,0.18-0.09,0.26-0.17l52.98-52.81&#10;&#9;&#9;&#9;c0.91-0.91,1.41-2.11,1.41-3.4c0-1.28-0.5-2.49-1.41-3.4L207.82,141.56z" class="st0"/>
	</g>
	<g>
		<path d="M240.96,125.44l-8.62-8.65c-0.29-0.29-0.29-0.76,0-1.05l38.35-38.48c0.91-0.91,2.11-1.41,3.4-1.41&#10;&#9;&#9;&#9;s2.49,0.5,3.4,1.41l5.75,5.77c0.14,0.15,0.22,0.34,0.22,0.53s-0.07,0.38-0.22,0.53l-41.23,41.36&#10;&#9;&#9;&#9;C241.72,125.73,241.25,125.73,240.96,125.44z" class="st0"/>
		<path d="M258.32,142.86l-8.62-8.65c-0.14-0.14-0.22-0.33-0.22-0.53c0-0.2,0.08-0.39,0.22-0.53l41.23-41.36&#10;&#9;&#9;&#9;c0.29-0.29,0.76-0.29,1.05,0l5.75,5.77c0.94,0.94,1.4,2.17,1.4,3.41c0,1.23-0.47,2.47-1.4,3.41l-38.35,38.48&#10;&#9;&#9;&#9;C259.08,143.15,258.61,143.15,258.32,142.86z" class="st0"/>
		<path d="M215.31,134.07c-0.29-0.29-0.29-0.76,0-1.05l8.62-8.65c0.14-0.14,0.33-0.22,0.52-0.22&#10;&#9;&#9;&#9;c0.2,0,0.39,0.08,0.52,0.22l51.28,51.45l40.03-40.16l-7.6-7.63l-32.05,32.16c-0.14,0.14-0.33,0.22-0.52,0.22&#10;&#9;&#9;&#9;c-0.2,0-0.39-0.08-0.52-0.22l-8.62-8.65c-0.29-0.29-0.29-0.76,0-1.05l41.23-41.36c0.29-0.29,0.76-0.29,1.05,0l8.62,8.65&#10;&#9;&#9;&#9;c0.05,0.05,0.09,0.11,0.13,0.18l14.25,14.3c0.93,0.94,1.41,2.16,1.41,3.39c0,1.03-0.33,2.06-1,2.94&#10;&#9;&#9;&#9;c-0.04,0.09-0.09,0.18-0.17,0.26l-52.81,52.98c-0.91,0.91-2.11,1.41-3.4,1.41c-1.28,0-2.49-0.5-3.4-1.41L215.31,134.07z" class="st0"/>
	</g>
	<g>
		<path d="M130.29,98.29l-8.65-8.62c-0.29-0.29-0.76-0.29-1.05,0l-38.48,38.35c-0.91,0.91-1.41,2.11-1.41,3.4&#10;&#9;&#9;&#9;s0.5,2.49,1.41,3.4l5.77,5.75c0.15,0.14,0.34,0.22,0.53,0.22c0.19,0,0.38-0.07,0.53-0.22l41.36-41.23&#10;&#9;&#9;&#9;C130.58,99.05,130.58,98.58,130.29,98.29z" class="st0"/>
		<path d="M147.71,115.65l-8.65-8.62c-0.14-0.14-0.33-0.22-0.53-0.22c-0.2,0-0.39,0.08-0.53,0.22l-41.36,41.23&#10;&#9;&#9;&#9;c-0.29,0.29-0.29,0.76,0,1.05l5.77,5.75c0.94,0.94,2.17,1.4,3.41,1.4c1.23,0,2.47-0.47,3.41-1.4l38.48-38.35&#10;&#9;&#9;&#9;C148,116.41,148,115.94,147.71,115.65z" class="st0"/>
		<path d="M138.91,72.64c-0.29-0.29-0.76-0.29-1.05,0l-8.65,8.62c-0.14,0.14-0.22,0.33-0.22,0.52s0.08,0.39,0.22,0.52&#10;&#9;&#9;&#9;l51.45,51.28l-40.16,40.03l-7.63-7.6l32.16-32.05c0.14-0.14,0.22-0.33,0.22-0.52s-0.08-0.39-0.22-0.52l-8.65-8.62&#10;&#9;&#9;&#9;c-0.29-0.29-0.76-0.29-1.05,0l-41.36,41.23c-0.29,0.29-0.29,0.76,0,1.05l8.65,8.62c0.05,0.05,0.11,0.09,0.18,0.13l14.3,14.25&#10;&#9;&#9;&#9;c0.94,0.93,2.16,1.41,3.39,1.41c1.03,0,2.06-0.33,2.94-1c0.09-0.04,0.18-0.09,0.26-0.17l52.98-52.81c0.91-0.91,1.41-2.11,1.41-3.4&#10;&#9;&#9;&#9;c0-1.28-0.5-2.49-1.41-3.4L138.91,72.64z" class="st0"/>
	</g>
	<g>
		<path d="M172.04,56.53l-8.62-8.65c-0.29-0.29-0.29-0.76,0-1.05l38.35-38.48c0.91-0.91,2.11-1.41,3.4-1.41&#10;&#9;&#9;&#9;s2.49,0.5,3.4,1.41l5.75,5.77c0.14,0.15,0.22,0.34,0.22,0.53s-0.07,0.38-0.22,0.53l-41.23,41.36&#10;&#9;&#9;&#9;C172.8,56.82,172.33,56.82,172.04,56.53z" class="st0"/>
		<path d="M189.41,73.95l-8.62-8.65c-0.14-0.14-0.22-0.33-0.22-0.53s0.08-0.39,0.22-0.53l41.23-41.36&#10;&#9;&#9;&#9;c0.29-0.29,0.76-0.29,1.05,0l5.75,5.77c0.94,0.94,1.4,2.17,1.4,3.41c0,1.23-0.47,2.47-1.4,3.41l-38.35,38.48&#10;&#9;&#9;&#9;C190.17,74.24,189.7,74.24,189.41,73.95z" class="st0"/>
		<path d="M146.4,65.15c-0.29-0.29-0.29-0.76,0-1.05l8.62-8.65c0.14-0.14,0.33-0.22,0.52-0.22&#10;&#9;&#9;&#9;c0.2,0,0.39,0.08,0.52,0.22l51.28,51.45l40.03-40.16l-7.6-7.63l-32.05,32.16c-0.14,0.14-0.33,0.22-0.52,0.22&#10;&#9;&#9;&#9;c-0.2,0-0.39-0.08-0.52-0.22l-8.62-8.65c-0.29-0.29-0.29-0.76,0-1.05l41.23-41.36c0.29-0.29,0.76-0.29,1.05,0l8.62,8.65&#10;&#9;&#9;&#9;c0.05,0.05,0.09,0.11,0.13,0.18l14.25,14.3c0.93,0.94,1.41,2.16,1.41,3.39c0,1.03-0.33,2.06-1,2.94&#10;&#9;&#9;&#9;c-0.04,0.09-0.09,0.18-0.17,0.26l-52.81,52.98c-0.91,0.91-2.11,1.41-3.4,1.41c-1.28,0-2.49-0.5-3.4-1.41L146.4,65.15z" class="st0"/>
	</g>
</g>
<g>
	<path d="M160.3,381.12c0-1.3,0.21-2.45,0.62-3.45c0.41-1,0.97-1.83,1.66-2.5c0.66-0.63,1.41-1.12,2.26-1.45&#10;&#9;&#9;s1.69-0.5,2.55-0.5s1.7,0.17,2.55,0.5c0.84,0.33,1.61,0.82,2.3,1.45c0.66,0.67,1.2,1.5,1.61,2.5c0.41,1,0.62,2.15,0.62,3.45v1.63&#10;&#9;&#9;h-4.22v-1.63c0-1.12-0.28-1.94-0.85-2.47c-0.57-0.53-1.24-0.79-2.01-0.79s-1.44,0.26-2.01,0.79c-0.57,0.53-0.85,1.35-0.85,2.47&#10;&#9;&#9;v17.07c0,1.12,0.28,1.95,0.85,2.47c0.57,0.53,1.24,0.79,2.01,0.79s1.44-0.26,2.01-0.79c0.57-0.53,0.85-1.35,0.85-2.47v-6.08h-3.35&#10;&#9;&#9;v-4.09h7.58v10.17c0,1.36-0.21,2.53-0.62,3.5c-0.41,0.97-0.95,1.77-1.61,2.41c-0.69,0.67-1.46,1.17-2.3,1.5&#10;&#9;&#9;c-0.84,0.33-1.69,0.5-2.55,0.5s-1.7-0.17-2.55-0.5c-0.84-0.33-1.59-0.83-2.26-1.5c-0.69-0.64-1.24-1.44-1.66-2.41&#10;&#9;&#9;c-0.41-0.97-0.62-2.13-0.62-3.5V381.12z" class="st0"/>
	<path d="M182.32,405.81v-32.32h6.79c4.97,0,7.45,3.16,7.45,9.49c0,1.91-0.27,3.53-0.81,4.86&#10;&#9;&#9;c-0.54,1.33-1.48,2.41-2.84,3.22l4.55,14.75H193l-3.93-13.8h-2.52v13.8H182.32z M186.54,377.85v10.08h2.4&#10;&#9;&#9;c0.75,0,1.34-0.11,1.78-0.34c0.44-0.23,0.79-0.55,1.03-0.98c0.22-0.42,0.37-0.95,0.46-1.57c0.08-0.62,0.12-1.34,0.12-2.16&#10;&#9;&#9;s-0.04-1.54-0.12-2.16c-0.08-0.62-0.25-1.16-0.5-1.61c-0.52-0.85-1.52-1.27-2.98-1.27H186.54z" class="st0"/>
	<path d="M203.84,381.12c0-1.3,0.21-2.45,0.62-3.45c0.41-1,0.97-1.83,1.66-2.5c0.66-0.63,1.41-1.12,2.26-1.45&#10;&#9;&#9;s1.69-0.5,2.55-0.5s1.7,0.17,2.55,0.5c0.84,0.33,1.61,0.82,2.3,1.45c0.66,0.67,1.2,1.5,1.61,2.5c0.41,1,0.62,2.15,0.62,3.45v17.07&#10;&#9;&#9;c0,1.36-0.21,2.53-0.62,3.5c-0.41,0.97-0.95,1.77-1.61,2.41c-0.69,0.67-1.46,1.17-2.3,1.5c-0.84,0.33-1.69,0.5-2.55,0.5&#10;&#9;&#9;s-1.7-0.17-2.55-0.5c-0.84-0.33-1.59-0.83-2.26-1.5c-0.69-0.64-1.24-1.44-1.66-2.41c-0.41-0.97-0.62-2.13-0.62-3.5V381.12z&#10;&#9;&#9; M208.07,398.19c0,1.12,0.28,1.95,0.85,2.47c0.57,0.53,1.24,0.79,2.01,0.79s1.44-0.26,2.01-0.79c0.57-0.53,0.85-1.35,0.85-2.47&#10;&#9;&#9;v-17.07c0-1.12-0.28-1.94-0.85-2.47c-0.57-0.53-1.24-0.79-2.01-0.79s-1.44,0.26-2.01,0.79c-0.57,0.53-0.85,1.35-0.85,2.47V398.19z" class="st0"/>
	<path d="M239.52,373.49v25.06c0,1.06-0.17,2.04-0.52,2.93c-0.35,0.89-0.83,1.69-1.47,2.38&#10;&#9;&#9;c-0.63,0.7-1.37,1.24-2.19,1.63c-0.83,0.39-1.71,0.59-2.65,0.59c-0.94,0-1.81-0.2-2.63-0.59c-0.81-0.39-1.54-0.94-2.17-1.63&#10;&#9;&#9;c-0.63-0.7-1.13-1.49-1.49-2.38c-0.36-0.89-0.54-1.87-0.54-2.93v-25.06h4.22v24.6c0,1.15,0.25,2,0.75,2.54&#10;&#9;&#9;c0.5,0.54,1.12,0.82,1.86,0.82s1.37-0.27,1.86-0.82c0.5-0.54,0.75-1.39,0.75-2.54v-24.6H239.52z" class="st0"/>
	<path d="M247.64,405.81v-32.32h6.33c1.16,0,2.18,0.17,3.06,0.5c0.88,0.33,1.68,0.92,2.4,1.77&#10;&#9;&#9;c0.72,0.85,1.21,1.84,1.49,2.97c0.28,1.13,0.41,2.67,0.41,4.61c0,1.45-0.08,2.68-0.23,3.68c-0.15,1-0.48,1.94-0.97,2.81&#10;&#9;&#9;c-0.58,1.06-1.35,1.88-2.32,2.47s-2.24,0.88-3.81,0.88h-2.15v12.62H247.64z M251.86,377.85v10.98h2.03c0.85,0,1.52-0.14,1.99-0.41&#10;&#9;&#9;c0.47-0.27,0.81-0.65,1.04-1.13c0.22-0.45,0.35-1.01,0.39-1.68c0.04-0.67,0.06-1.41,0.06-2.22c0-0.76-0.01-1.47-0.04-2.16&#10;&#9;&#9;c-0.03-0.68-0.15-1.28-0.37-1.79c-0.22-0.51-0.55-0.91-0.99-1.18s-1.08-0.41-1.9-0.41H251.86z" class="st0"/>
</g>
</svg>