<svg version="1.2" xmlns="http://www.w3.org/2000/svg" viewBox="0 0 257 257" width="257" height="257">
	<title>emmelia_logo</title>
	<style>
		.s0 { fill: #231f20 } 
		.s1 { fill: #ffa500 } 
		.s2 { fill: #505050 } 
		.s3 { fill: #0000ff } 
		.s4 { fill: #005000 } 
	</style>
	<g>
		<path class="s0" d="m-46.3 354.9v-87.1h39.1v11.7h-26v25.6h22.7v11.7h-22.7v25.6h26v12.5z"/>
		<path class="s0" d="m1.3 354.9v-87.1h12.6l16.9 46.1h0.2l16.8-46.1h12.7v87.1h-13.1v-53h-0.3l-13 37.4h-6.5l-12.9-37.4h-0.3v53z"/>
		<path class="s0" d="m72.9 354.9v-87.1h12.6l16.8 46.1h0.3l16.7-46.1h12.8v87.1h-13.2v-53h-0.2l-13 37.4h-6.6l-12.8-37.4h-0.3v53z"/>
		<path class="s0" d="m144.4 354.9v-87.1h39.2v11.7h-26v25.6h22.6v11.7h-22.6v25.6h26v12.5z"/>
		<path class="s0" d="m192.1 354.9v-87.1h13.1v74.6h26v12.5z"/>
		<path class="s0" d="m240.1 354.9v-87.1h13.1v87.1z"/>
		<path class="s0" d="m260 354.9l20.5-87.1h10.9l20.5 87.1h-13.2l-3.8-18.7h-17.9l-3.9 18.7zm32.5-30.5l-6.5-31.5h-0.2l-6.5 31.5z"/>
	</g>
	<g>
		<g>
			<path class="s1" d="m120.2 162.2l-8.7-8.6c-0.2-0.3-0.7-0.3-1 0l-38.5 38.3c-0.9 0.9-1.4 2.1-1.4 3.4 0 1.3 0.5 2.5 1.4 3.4l5.8 5.8q0.2 0.2 0.5 0.2 0.3 0 0.5-0.2l41.4-41.2c0.3-0.3 0.3-0.8 0-1.1z"/>
			<path class="s1" d="m137.6 179.6l-8.6-8.7q-0.2-0.2-0.6-0.2-0.3 0-0.5 0.2l-41.3 41.3c-0.3 0.3-0.3 0.7 0 1l5.7 5.8c1 0.9 2.2 1.4 3.4 1.4 1.3 0 2.5-0.5 3.4-1.4l38.5-38.4c0.3-0.3 0.3-0.7 0-1z"/>
			<path class="s1" d="m128.8 136.6c-0.3-0.3-0.7-0.3-1 0l-8.7 8.6q-0.2 0.2-0.2 0.5 0 0.3 0.2 0.5l51.5 51.3-40.2 40-7.6-7.6 32.1-32q0.3-0.2 0.3-0.5c0-0.2-0.1-0.4-0.3-0.6l-8.6-8.6c-0.3-0.3-0.8-0.3-1.1 0l-41.3 41.3c-0.3 0.2-0.3 0.7 0 1l8.6 8.6q0.1 0.1 0.2 0.2l14.3 14.2c1 0.9 2.2 1.4 3.4 1.4 1 0 2.1-0.3 2.9-1q0.2 0 0.3-0.2l53-52.8c0.9-0.9 1.4-2.1 1.4-3.4 0-1.2-0.5-2.5-1.4-3.4z"/>
		</g>
		<g>
			<path class="s2" d="m162 120.4l-8.7-8.6c-0.2-0.3-0.2-0.8 0-1.1l38.4-38.4c0.9-1 2.1-1.5 3.4-1.5 1.3 0 2.5 0.5 3.4 1.5l5.7 5.7q0.3 0.3 0.3 0.6 0 0.3-0.3 0.5l-41.2 41.3c-0.3 0.3-0.7 0.3-1 0z"/>
			<path class="s2" d="m179.3 137.9l-8.6-8.7q-0.2-0.2-0.2-0.5 0-0.3 0.2-0.6l41.2-41.3c0.3-0.3 0.8-0.3 1.1 0l5.7 5.8c1 0.9 1.4 2.1 1.4 3.4 0 1.2-0.4 2.4-1.4 3.4l-38.3 38.5c-0.3 0.2-0.8 0.2-1.1 0z"/>
			<path class="s2" d="m136.3 129.1c-0.3-0.3-0.3-0.8 0-1.1l8.6-8.6q0.3-0.2 0.6-0.3 0.3 0.1 0.5 0.3l51.2 51.4 40.1-40.1-7.6-7.7-32.1 32.2q-0.2 0.2-0.5 0.2-0.3 0-0.5-0.2l-8.6-8.7c-0.3-0.2-0.3-0.7 0-1l41.2-41.4c0.3-0.3 0.8-0.3 1 0l8.7 8.7q0 0.1 0.1 0.2l14.2 14.3c1 0.9 1.5 2.1 1.5 3.3 0 1.1-0.4 2.1-1 3q-0.1 0.1-0.2 0.2l-52.8 53c-0.9 0.9-2.1 1.4-3.4 1.4-1.3 0-2.5-0.5-3.4-1.4z"/>
		</g>
		<g>
			<path class="s3" d="m51.3 93.3l-8.7-8.6c-0.3-0.3-0.7-0.3-1 0l-38.5 38.3c-0.9 0.9-1.4 2.1-1.4 3.4 0 1.3 0.5 2.5 1.4 3.4l5.8 5.8q0.2 0.2 0.5 0.2 0.3 0 0.5-0.2l41.4-41.3c0.3-0.3 0.3-0.7 0-1z"/>
			<path class="s3" d="m68.7 110.7l-8.6-8.7q-0.3-0.2-0.6-0.2-0.3 0-0.5 0.2l-41.4 41.3c-0.3 0.2-0.3 0.7 0 1l5.8 5.8c0.9 0.9 2.2 1.4 3.4 1.4 1.2 0 2.5-0.5 3.4-1.4l38.5-38.4c0.3-0.3 0.3-0.8 0-1z"/>
			<path class="s3" d="m59.9 67.6c-0.3-0.3-0.7-0.3-1 0l-8.7 8.7q-0.2 0.2-0.2 0.5c0 0.2 0.1 0.4 0.2 0.5l51.5 51.3-40.2 40-7.6-7.6 32.1-32q0.2-0.3 0.2-0.6c0-0.2 0-0.4-0.2-0.5l-8.6-8.6c-0.3-0.3-0.8-0.3-1.1 0l-41.3 41.2c-0.3 0.3-0.3 0.8 0 1.1l8.6 8.6q0.1 0.1 0.2 0.1l14.3 14.3c0.9 0.9 2.2 1.4 3.4 1.4 1 0 2-0.3 2.9-1q0.2-0.1 0.3-0.2l53-52.8c0.9-0.9 1.4-2.1 1.4-3.4 0-1.3-0.5-2.5-1.4-3.4z"/>
		</g>
		<g>
			<path class="s4" d="m93 51.5l-8.6-8.6c-0.3-0.3-0.3-0.8 0-1.1l38.4-38.4c0.9-1 2.1-1.5 3.4-1.5 1.3 0 2.5 0.5 3.4 1.5l5.7 5.7q0.2 0.3 0.2 0.6 0 0.2-0.2 0.5l-41.2 41.3c-0.3 0.3-0.8 0.3-1.1 0z"/>
			<path class="s4" d="m110.4 69l-8.6-8.7q-0.2-0.2-0.2-0.5 0-0.3 0.2-0.6l41.2-41.3c0.3-0.3 0.8-0.3 1.1 0l5.7 5.7c1 1 1.4 2.2 1.4 3.5 0 1.2-0.5 2.4-1.4 3.4l-38.3 38.4c-0.3 0.3-0.8 0.3-1.1 0.1z"/>
			<path class="s4" d="m67.4 60.2c-0.3-0.3-0.3-0.8 0-1.1l8.6-8.6q0.2-0.3 0.5-0.3 0.4 0 0.6 0.3l51.2 51.4 40.1-40.2-7.6-7.6-32.1 32.2q-0.2 0.2-0.5 0.2-0.3 0-0.5-0.2l-8.6-8.7c-0.3-0.3-0.3-0.7 0-1l41.2-41.4c0.3-0.3 0.7-0.3 1 0l8.7 8.7q0 0 0.1 0.1l14.2 14.3c1 1 1.5 2.2 1.5 3.4 0 1.1-0.4 2.1-1 3q-0.1 0.1-0.2 0.2l-52.8 53c-0.9 0.9-2.1 1.4-3.4 1.4-1.3 0-2.5-0.5-3.4-1.4z"/>
		</g>
	</g>
	<g>
		<path class="s0" d="m81.3 376.1q0-1.9 0.6-3.4 0.6-1.5 1.7-2.5 1-1 2.2-1.5 1.3-0.5 2.6-0.5 1.3 0 2.5 0.5 1.3 0.5 2.3 1.5 1 1 1.7 2.5 0.6 1.5 0.6 3.4v1.6h-4.2v-1.6q0-1.7-0.9-2.5-0.9-0.7-2-0.7-1.2 0-2 0.7-0.9 0.8-0.9 2.5v17.1q0 1.7 0.9 2.5 0.8 0.8 2 0.8 1.1 0 2-0.8 0.9-0.8 0.9-2.5v-6.1h-3.4v-4.1h7.6v10.2q0 2-0.6 3.5-0.7 1.4-1.6 2.4-1.1 1-2.3 1.5-1.3 0.5-2.6 0.5-1.3 0-2.5-0.5-1.3-0.5-2.3-1.5-1-1-1.7-2.4-0.6-1.5-0.6-3.5v-17.1z"/>
		<path class="s0" d="m103.3 400.8v-32.3h6.8q7.5 0 7.5 9.5 0 2.8-0.9 4.8-0.8 2-2.8 3.3l4.6 14.7h-4.5l-3.9-13.8h-2.6v13.8zm4.3-27.9v10h2.4q1.1 0 1.7-0.3 0.7-0.3 1.1-1 0.3-0.6 0.4-1.6 0.2-0.9 0.2-2.1 0-1.2-0.2-2.2-0.1-0.9-0.5-1.6-0.7-1.3-2.9-1.3h-2.2z"/>
		<path class="s0" d="m124.8 376.1q0-1.9 0.7-3.4 0.6-1.5 1.6-2.5 1-1 2.3-1.5 1.2-0.5 2.5-0.5 1.3 0 2.6 0.5 1.2 0.5 2.3 1.5 1 1 1.6 2.5 0.6 1.5 0.6 3.4v17.1q0 2-0.6 3.5-0.6 1.4-1.6 2.4-1.1 1-2.3 1.5-1.3 0.5-2.6 0.5-1.3 0-2.5-0.5-1.3-0.5-2.3-1.5-1-1-1.6-2.4-0.7-1.5-0.7-3.5zm4.3 17.1q0 1.6 0.8 2.4 0.9 0.8 2 0.8 1.2 0 2-0.8 0.9-0.8 0.9-2.4v-17.1q0-1.7-0.9-2.5-0.8-0.8-2-0.8-1.1 0-2 0.8-0.8 0.8-0.8 2.5z"/>
		<path class="s0" d="m160.5 368.5v25.1q0 1.5-0.5 2.9-0.5 1.3-1.5 2.4-0.9 1-2.2 1.6-1.2 0.6-2.6 0.6-1.4 0-2.6-0.6-1.3-0.6-2.2-1.6-1-1.1-1.5-2.4-0.5-1.4-0.5-2.9v-25.1h4.2v24.6q0 1.7 0.7 2.5 0.8 0.8 1.9 0.9 1.1 0 1.9-0.9 0.7-0.8 0.7-2.5v-24.6z"/>
		<path class="s0" d="m168.6 400.8v-32.3h6.4q1.7 0 3 0.5 1.3 0.5 2.4 1.8 1.1 1.2 1.5 2.9 0.4 1.7 0.4 4.6 0 2.2-0.2 3.7-0.2 1.5-1 2.8-0.8 1.6-2.3 2.5-1.4 0.9-3.8 0.9h-2.2v12.6c0 0-4.2 0-4.2 0zm4.3-27.9v10.9h2q1.3 0 2-0.4 0.7-0.4 1-1.1 0.4-0.7 0.4-1.7 0.1-1 0.1-2.2 0-1.1-0.1-2.2 0-1-0.3-1.8-0.4-0.7-1-1.1-0.7-0.4-1.9-0.5z"/>
	</g>
</svg>