<?xml version="1.0" encoding="utf-8"?>
<!-- Generator: Adobe Illustrator 23.1.1, SVG Export Plug-In . SVG Version: 6.00 Build 0)  -->
<svg version="1.1" id="Layer_1" xmlns="http://www.w3.org/2000/svg" xmlns:xlink="http://www.w3.org/1999/xlink" x="0px" y="0px"
	 viewBox="0 0 1631.02 265.82" style="enable-background:new 0 0 1631.02 265.82;" xml:space="preserve">
<style type="text/css">
	.st0{fill:#231F20;}
	.st1{fill:#231F20;stroke:#231F20;stroke-width:3;stroke-miterlimit:10;}
	.st2{fill:#FFFFFF;}
	.st3{fill:#C49852;}
	.st4{fill:#364430;}
	.st5{fill:#640C0D;}
	.st6{fill:#C49852;stroke:#C49852;stroke-miterlimit:10;}
	.st7{fill:#FFFFFF;stroke:#FFFFFF;stroke-width:2.0201;stroke-miterlimit:10;}
	.st8{fill:#FFFFFF;stroke:#FFFFFF;stroke-miterlimit:10;}
	.st9{fill:none;stroke:#EC1C24;stroke-miterlimit:10;}
	.st10{fill:#FFFFFF;stroke:#FFFFFF;stroke-width:11;stroke-miterlimit:10;}
	.st11{fill:#231F20;stroke:#231F20;stroke-width:11;stroke-miterlimit:10;}
</style>
<g>
	<g>
		<path class="st0" d="M186.62,169.3l-8.65-8.62c-0.29-0.29-0.76-0.29-1.05,0l-38.48,38.35c-0.91,0.91-1.41,2.11-1.41,3.4
			c0,1.28,0.5,2.49,1.41,3.4l5.77,5.75c0.15,0.14,0.34,0.22,0.53,0.22c0.19,0,0.38-0.07,0.53-0.22l41.36-41.23
			C186.91,170.06,186.91,169.59,186.62,169.3z"/>
		<path class="st0" d="M204.04,186.66l-8.65-8.62c-0.14-0.14-0.33-0.22-0.53-0.22c-0.2,0-0.39,0.08-0.53,0.22l-41.36,41.23
			c-0.29,0.29-0.29,0.76,0,1.05l5.77,5.75c0.94,0.94,2.17,1.4,3.41,1.4c1.23,0,2.47-0.47,3.41-1.4l38.48-38.35
			C204.33,187.42,204.33,186.95,204.04,186.66z"/>
		<path class="st0" d="M195.24,143.65c-0.29-0.29-0.76-0.29-1.05,0l-8.65,8.62c-0.14,0.14-0.22,0.33-0.22,0.52s0.08,0.39,0.22,0.52
			l51.45,51.28l-40.16,40.03l-7.63-7.6l32.16-32.05c0.14-0.14,0.22-0.33,0.22-0.52c0-0.2-0.08-0.39-0.22-0.52l-8.65-8.62
			c-0.29-0.29-0.76-0.29-1.05,0l-41.36,41.23c-0.29,0.29-0.29,0.76,0,1.05l8.65,8.62c0.05,0.05,0.11,0.09,0.18,0.13l14.3,14.25
			c0.94,0.93,2.16,1.41,3.39,1.41c1.03,0,2.06-0.33,2.94-1c0.09-0.04,0.18-0.09,0.26-0.17L252.98,208c0.91-0.91,1.41-2.11,1.41-3.4
			c0-1.28-0.5-2.49-1.41-3.4L195.24,143.65z"/>
	</g>
	<g>
		<path class="st0" d="M228.37,127.54l-8.62-8.65c-0.29-0.29-0.29-0.76,0-1.05l38.35-38.48c0.91-0.91,2.11-1.41,3.4-1.41
			s2.49,0.5,3.4,1.41l5.75,5.77c0.14,0.15,0.22,0.34,0.22,0.53c0,0.19-0.07,0.38-0.22,0.53l-41.23,41.36
			C229.13,127.83,228.66,127.83,228.37,127.54z"/>
		<path class="st0" d="M245.74,144.96l-8.62-8.65c-0.14-0.14-0.22-0.33-0.22-0.53c0-0.2,0.08-0.39,0.22-0.53l41.23-41.36
			c0.29-0.29,0.76-0.29,1.05,0l5.75,5.77c0.94,0.94,1.4,2.17,1.4,3.41c0,1.23-0.47,2.47-1.4,3.41l-38.35,38.48
			C246.5,145.25,246.03,145.25,245.74,144.96z"/>
		<path class="st0" d="M202.73,136.16c-0.29-0.29-0.29-0.76,0-1.05l8.62-8.65c0.14-0.14,0.33-0.22,0.52-0.22
			c0.2,0,0.39,0.08,0.52,0.22l51.28,51.45l40.03-40.16l-7.6-7.63l-32.05,32.16c-0.14,0.14-0.33,0.22-0.52,0.22s-0.39-0.08-0.52-0.22
			l-8.62-8.65c-0.29-0.29-0.29-0.76,0-1.05l41.23-41.36c0.29-0.29,0.76-0.29,1.05,0l8.62,8.65c0.05,0.05,0.09,0.11,0.13,0.18
			l14.25,14.3c0.93,0.94,1.41,2.16,1.41,3.39c0,1.03-0.33,2.06-1,2.94c-0.04,0.09-0.09,0.18-0.17,0.26l-52.81,52.98
			c-0.91,0.91-2.11,1.41-3.4,1.41c-1.28,0-2.49-0.5-3.4-1.41L202.73,136.16z"/>
	</g>
	<g>
		<path class="st0" d="M117.71,100.38l-8.65-8.62c-0.29-0.29-0.76-0.29-1.05,0l-38.48,38.35c-0.91,0.91-1.41,2.11-1.41,3.4
			c0,1.28,0.5,2.49,1.41,3.4l5.77,5.75c0.15,0.14,0.34,0.22,0.53,0.22c0.19,0,0.38-0.07,0.53-0.22l41.36-41.23
			C118,101.14,118,100.67,117.71,100.38z"/>
		<path class="st0" d="M135.13,117.75l-8.65-8.62c-0.14-0.14-0.33-0.22-0.53-0.22s-0.39,0.08-0.53,0.22l-41.36,41.23
			c-0.29,0.29-0.29,0.76,0,1.05l5.77,5.75c0.94,0.94,2.17,1.4,3.41,1.4c1.23,0,2.47-0.47,3.41-1.4l38.48-38.35
			C135.42,118.51,135.42,118.04,135.13,117.75z"/>
		<path class="st0" d="M126.33,74.74c-0.29-0.29-0.76-0.29-1.05,0l-8.65,8.62c-0.14,0.14-0.22,0.33-0.22,0.52s0.08,0.39,0.22,0.52
			l51.45,51.28l-40.16,40.03l-7.63-7.6l32.16-32.05c0.14-0.14,0.22-0.33,0.22-0.52c0-0.2-0.08-0.39-0.22-0.52l-8.65-8.62
			c-0.29-0.29-0.76-0.29-1.05,0l-41.36,41.23c-0.29,0.29-0.29,0.76,0,1.05l8.65,8.62c0.05,0.05,0.11,0.09,0.18,0.13l14.3,14.25
			c0.94,0.93,2.16,1.41,3.39,1.41c1.03,0,2.06-0.33,2.94-1c0.09-0.04,0.18-0.09,0.26-0.17l52.98-52.81c0.91-0.91,1.41-2.11,1.41-3.4
			c0-1.28-0.5-2.49-1.41-3.4L126.33,74.74z"/>
	</g>
	<g>
		<path class="st0" d="M159.46,58.63l-8.62-8.65c-0.29-0.29-0.29-0.76,0-1.05l38.35-38.48c0.91-0.91,2.11-1.41,3.4-1.41
			s2.49,0.5,3.4,1.41l5.75,5.77c0.14,0.15,0.22,0.34,0.22,0.53s-0.07,0.38-0.22,0.53l-41.23,41.36
			C160.22,58.92,159.75,58.92,159.46,58.63z"/>
		<path class="st0" d="M176.83,76.05l-8.62-8.65c-0.14-0.14-0.22-0.33-0.22-0.53s0.08-0.39,0.22-0.53l41.23-41.36
			c0.29-0.29,0.76-0.29,1.05,0l5.75,5.77c0.94,0.94,1.4,2.17,1.4,3.41c0,1.23-0.47,2.47-1.4,3.41l-38.35,38.48
			C177.59,76.34,177.12,76.34,176.83,76.05z"/>
		<path class="st0" d="M133.82,67.25c-0.29-0.29-0.29-0.76,0-1.05l8.62-8.65c0.14-0.14,0.33-0.22,0.52-0.22
			c0.2,0,0.39,0.08,0.52,0.22L194.77,109l40.03-40.16l-7.6-7.63l-32.05,32.16c-0.14,0.14-0.33,0.22-0.52,0.22s-0.39-0.08-0.52-0.22
			l-8.62-8.65c-0.29-0.29-0.29-0.76,0-1.05L226.7,42.3c0.29-0.29,0.76-0.29,1.05,0l8.62,8.65c0.05,0.05,0.09,0.11,0.13,0.18
			l14.25,14.3c0.93,0.94,1.41,2.16,1.41,3.39c0,1.03-0.33,2.06-1,2.94c-0.04,0.09-0.09,0.18-0.17,0.26l-52.81,52.98
			c-0.91,0.91-2.11,1.41-3.4,1.41c-1.28,0-2.49-0.5-3.4-1.41L133.82,67.25z"/>
	</g>
</g>
<g>
	<path class="st11" d="M424.05,153.62h-47.26v17.7c0,4.11,1.05,7.27,3.16,9.49c2.11,2.23,4.95,3.34,8.54,3.34
		c4.52,0,7.52-1.45,9.01-4.36c1.48-2.91,2.38-5.81,2.69-8.72h23.87c0,11.46-3.2,20.7-9.59,27.71c-3.12,3.59-6.87,6.41-11.23,8.47
		c-4.37,2.05-9.28,3.08-14.74,3.08c-7.49,0-13.85-1.71-19.07-5.13c-5.23-3.42-9.24-7.95-12.05-13.6c-1.72-3.42-2.89-7.35-3.51-11.8
		c-0.62-4.45-0.94-9.32-0.94-14.63v-42.85c0-5.3,0.31-10.17,0.94-14.63c0.62-4.45,1.79-8.38,3.51-11.8
		c2.81-5.65,6.82-10.18,12.05-13.6c5.22-3.42,11.58-5.13,19.07-5.13c5.46,0,10.41,1.03,14.86,3.08s8.23,4.88,11.35,8.47
		c6.24,7.7,9.36,17.36,9.36,29V153.62z M376.79,133.09h23.4v-14.88c0-4.96-1.05-8.68-3.16-11.16c-2.11-2.48-4.95-3.72-8.54-3.72
		c-3.59,0-6.43,1.24-8.54,3.72c-2.11,2.48-3.16,6.2-3.16,11.16V133.09z"/>
	<path class="st11" d="M453.3,208.79V78.7h23.87v12.57h0.47c2.49-4.11,5.5-7.48,9.01-10.13c3.51-2.65,7.99-3.98,13.45-3.98
		c5.15,0,9.44,1.37,12.87,4.11c3.43,2.74,6.24,5.73,8.42,8.98c2.96-3.59,6.24-6.67,9.83-9.24c3.59-2.57,8.58-3.85,14.97-3.85
		c2.96,0,6,0.56,9.13,1.67c3.12,1.11,5.93,2.95,8.42,5.52c2.49,2.57,4.52,5.86,6.08,9.88c1.56,4.02,2.34,8.94,2.34,14.75v99.81
		H548.3v-90.06c0-4.79-1.02-8.55-3.04-11.29c-2.03-2.73-4.91-4.11-8.66-4.11c-4.53,0-7.64,1.54-9.36,4.62
		c-1.72,3.08-2.57,7.53-2.57,13.34v87.5H500.8v-90.06c0-4.79-1.02-8.55-3.04-11.29c-2.03-2.73-4.91-4.11-8.66-4.11
		c-4.53,0-7.65,1.54-9.36,4.62c-1.72,3.08-2.57,7.53-2.57,13.34v87.5H453.3z"/>
	<path class="st11" d="M603.51,208.79V78.7h23.87v12.57h0.47c2.49-4.11,5.5-7.48,9.01-10.13c3.51-2.65,7.99-3.98,13.45-3.98
		c5.15,0,9.44,1.37,12.87,4.11c3.43,2.74,6.24,5.73,8.42,8.98c2.96-3.59,6.24-6.67,9.83-9.24c3.59-2.57,8.58-3.85,14.97-3.85
		c2.96,0,6,0.56,9.13,1.67c3.12,1.11,5.93,2.95,8.42,5.52c2.49,2.57,4.52,5.86,6.08,9.88c1.56,4.02,2.34,8.94,2.34,14.75v99.81
		h-23.87v-90.06c0-4.79-1.02-8.55-3.04-11.29c-2.03-2.73-4.91-4.11-8.66-4.11c-4.53,0-7.64,1.54-9.36,4.62
		c-1.72,3.08-2.57,7.53-2.57,13.34v87.5h-23.87v-90.06c0-4.79-1.02-8.55-3.04-11.29c-2.03-2.73-4.91-4.11-8.66-4.11
		c-4.53,0-7.65,1.54-9.36,4.62c-1.72,3.08-2.57,7.53-2.57,13.34v87.5H603.51z"/>
	<path class="st11" d="M822.75,153.62h-47.26v17.7c0,4.11,1.05,7.27,3.16,9.49c2.11,2.23,4.95,3.34,8.54,3.34
		c4.52,0,7.52-1.45,9.01-4.36c1.48-2.91,2.38-5.81,2.69-8.72h23.87c0,11.46-3.2,20.7-9.59,27.71c-3.12,3.59-6.87,6.41-11.23,8.47
		c-4.37,2.05-9.28,3.08-14.74,3.08c-7.49,0-13.85-1.71-19.07-5.13c-5.23-3.42-9.24-7.95-12.05-13.6c-1.72-3.42-2.89-7.35-3.51-11.8
		c-0.62-4.45-0.94-9.32-0.94-14.63v-42.85c0-5.3,0.31-10.17,0.94-14.63c0.62-4.45,1.79-8.38,3.51-11.8
		c2.81-5.65,6.82-10.18,12.05-13.6c5.22-3.42,11.58-5.13,19.07-5.13c5.46,0,10.41,1.03,14.86,3.08s8.23,4.88,11.35,8.47
		c6.24,7.7,9.36,17.36,9.36,29V153.62z M775.49,133.09h23.4v-14.88c0-4.96-1.05-8.68-3.16-11.16c-2.11-2.48-4.95-3.72-8.54-3.72
		c-3.59,0-6.43,1.24-8.54,3.72c-2.11,2.48-3.16,6.2-3.16,11.16V133.09z"/>
	<path class="st11" d="M850.6,26.09h23.87v146c0,4.96,0.82,8.34,2.46,10.13c1.64,1.8,4.72,2.95,9.24,3.46v24.63
		c-5.46,0-10.38-0.47-14.74-1.41c-4.37-0.94-8.11-2.78-11.23-5.52c-3.12-2.57-5.5-6.2-7.14-10.91c-1.64-4.7-2.46-10.91-2.46-18.6
		V26.09z"/>
	<path class="st11" d="M907.22,52.27V26.09h23.87v26.17H907.22z M907.22,208.79V78.7h23.87v130.09H907.22z"/>
	<path class="st11" d="M1007.59,208.79v-13.34h-0.47c-3.12,4.79-6.28,8.47-9.48,11.03c-3.2,2.57-7.69,3.85-13.45,3.85
		c-2.81,0-5.66-0.47-8.54-1.41c-2.89-0.94-5.66-2.69-8.31-5.26c-2.65-2.39-4.8-5.86-6.43-10.39c-1.64-4.53-2.46-10.39-2.46-17.58
		c0-7.35,0.54-13.81,1.64-19.37c1.09-5.56,3.12-10.22,6.08-13.98c2.81-3.59,6.63-6.29,11.46-8.08c4.83-1.8,11-2.69,18.48-2.69
		c0.78,0,1.64,0,2.57,0c0.94,0,1.79,0.09,2.57,0.26c0.78,0.17,1.71,0.26,2.81,0.26c1.09,0,2.26,0.09,3.51,0.26v-13.6
		c0-4.45-0.86-8.12-2.57-11.03c-1.72-2.91-4.84-4.36-9.36-4.36c-3.12,0-5.97,1.11-8.54,3.33c-2.57,2.23-4.25,5.48-5.03,9.75h-23.16
		c0.62-11.63,4.21-21.04,10.76-28.23c3.12-3.42,6.86-6.11,11.23-8.08c4.37-1.96,9.28-2.95,14.74-2.95c4.99,0,9.67,0.86,14.04,2.57
		c4.37,1.71,8.19,4.28,11.46,7.7c3.12,3.42,5.62,7.7,7.49,12.83s2.81,11.12,2.81,17.96v90.58H1007.59z M1007.59,152.85
		c-2.65-0.51-4.84-0.77-6.55-0.77c-5.15,0-9.56,1.33-13.22,3.98c-3.67,2.65-5.5,7.49-5.5,14.5c0,4.96,1.09,8.98,3.28,12.06
		c2.18,3.08,5.22,4.62,9.13,4.62c4.05,0,7.21-1.45,9.48-4.36c2.26-2.91,3.39-7.01,3.39-12.32V152.85z"/>
</g>
<g>
	<g>
		<path class="st0" d="M1130.69,157.64h-47.26l-3.07,17.44c-0.71,4.04-0.21,7.16,1.51,9.35c1.72,2.19,4.37,3.29,7.96,3.29
			c4.52,0,7.78-1.43,9.76-4.3c1.99-2.86,3.39-5.73,4.21-8.59h23.87c-1.99,11.29-6.79,20.38-14.4,27.29
			c-3.75,3.54-7.98,6.32-12.7,8.34c-4.73,2.02-9.82,3.03-15.27,3.03c-7.49,0-13.55-1.68-18.18-5.05c-4.63-3.37-7.86-7.83-9.69-13.39
			c-1.12-3.37-1.61-7.24-1.46-11.62c0.15-4.38,0.68-9.18,1.6-14.4l7.44-42.2c0.92-5.22,2.08-10.02,3.48-14.4
			c1.39-4.38,3.25-8.25,5.56-11.62c3.79-5.56,8.59-10.02,14.41-13.39c5.82-3.37,12.47-5.05,19.96-5.05c5.46,0,10.23,1.01,14.32,3.03
			s7.38,4.8,9.88,8.34c4.9,7.58,6.34,17.1,4.33,28.55L1130.69,157.64z M1086.99,137.42h23.4l2.58-14.66
			c0.86-4.88,0.46-8.55-1.22-10.99c-1.68-2.44-4.31-3.66-7.89-3.66c-3.59,0-6.65,1.22-9.19,3.66c-2.54,2.44-4.24,6.11-5.1,10.99
			L1086.99,137.42z"/>
		<path class="st0" d="M1231.21,83.85l-53.48,128.12h-21.06l-8.29-128.12h25.27l1.47,81.87h0.47l30.35-81.87H1231.21z"/>
		<path class="st0" d="M1295.42,157.64h-47.26l-3.07,17.44c-0.71,4.04-0.21,7.16,1.51,9.35c1.72,2.19,4.37,3.29,7.96,3.29
			c4.52,0,7.78-1.43,9.77-4.3c1.99-2.86,3.39-5.73,4.21-8.59h23.87c-1.99,11.29-6.79,20.38-14.4,27.29
			c-3.75,3.54-7.98,6.32-12.7,8.34c-4.73,2.02-9.82,3.03-15.27,3.03c-7.49,0-13.55-1.68-18.18-5.05c-4.63-3.37-7.86-7.83-9.69-13.39
			c-1.12-3.37-1.61-7.24-1.46-11.62c0.15-4.38,0.68-9.18,1.6-14.4l7.44-42.2c0.92-5.22,2.08-10.02,3.47-14.4
			c1.39-4.38,3.25-8.25,5.56-11.62c3.79-5.56,8.59-10.02,14.41-13.39c5.82-3.37,12.47-5.05,19.96-5.05c5.46,0,10.23,1.01,14.32,3.03
			s7.38,4.8,9.88,8.34c4.9,7.58,6.34,17.1,4.33,28.55L1295.42,157.64z M1251.72,137.42h23.4l2.58-14.66
			c0.86-4.88,0.45-8.55-1.22-10.99c-1.68-2.44-4.31-3.66-7.89-3.66c-3.59,0-6.65,1.22-9.19,3.66c-2.54,2.44-4.24,6.11-5.1,10.99
			L1251.72,137.42z"/>
		<path class="st0" d="M1303.38,211.97l22.59-128.12h23.87l-2.18,12.38h0.47c3.21-4.04,6.8-7.37,10.77-9.98
			c3.97-2.61,8.68-3.92,14.15-3.92c2.96,0,5.83,0.55,8.6,1.64c2.77,1.1,5.1,2.91,7,5.43c1.89,2.53,3.19,5.77,3.9,9.73
			c0.71,3.96,0.55,8.8-0.46,14.53l-17.33,98.3h-23.87l15.64-88.7c0.83-4.71,0.47-8.42-1.08-11.12c-1.55-2.69-4.2-4.04-7.94-4.04
			c-4.53,0-7.91,1.52-10.16,4.55c-2.25,3.03-3.88,7.41-4.89,13.14l-15.19,86.17H1303.38z"/>
		<path class="st0" d="M1416.99,83.85l6.86-38.92h23.87l-6.86,38.92h14.74l-3.56,20.21h-14.74l-12.52,71.01
			c-0.54,3.03-0.68,5.39-0.43,7.08c0.25,1.69,0.92,2.95,2.02,3.79c1.1,0.84,2.53,1.35,4.29,1.52c1.76,0.17,3.97,0.25,6.62,0.25
			l-4.28,24.26h-9.83c-5.46,0-9.86-0.92-13.2-2.78c-3.34-1.85-5.85-4.21-7.53-7.08c-1.68-2.86-2.71-6.1-3.08-9.73
			c-0.38-3.62-0.27-7.11,0.33-10.49l13.72-77.83h-11.93l3.56-20.21H1416.99z"/>
		<path class="st0" d="M1501.68,119.73c0.62-4.38-0.09-7.66-2.12-9.86c-2.03-2.19-4.61-3.29-7.73-3.29c-3.74,0-6.86,1.31-9.35,3.92
			c-2.49,2.61-4.03,5.6-4.62,8.97c-0.42,2.36-0.28,4.67,0.41,6.95c0.69,2.27,3.13,4.34,7.33,6.19l12.97,6.06
			c8.24,3.71,13.47,8.76,15.69,15.16c2.22,6.41,2.67,13.39,1.33,20.97c-0.95,5.39-2.73,10.4-5.34,15.03
			c-2.61,4.64-5.79,8.72-9.53,12.26c-3.75,3.54-7.98,6.32-12.7,8.34c-4.73,2.02-9.66,3.03-14.81,3.03c-9.67,0-17.2-3.29-22.6-9.86
			c-2.71-3.2-4.66-7.2-5.84-12c-1.18-4.8-1.29-10.4-0.31-16.8h22.46c-0.16,3.54,0.39,6.82,1.66,9.85c1.26,3.03,4.15,4.55,8.67,4.55
			c3.43,0,6.73-1.22,9.89-3.66c3.16-2.44,5.13-5.85,5.9-10.23c0.62-3.54,0.3-6.57-0.97-9.1c-1.27-2.53-4.01-4.71-8.2-6.57
			l-10.66-4.55c-6.95-3.03-12.05-7.54-15.28-13.52c-3.24-5.98-4.09-13.27-2.58-21.86c0.95-5.39,2.77-10.4,5.46-15.04
			c2.69-4.63,5.97-8.63,9.84-12c3.71-3.37,7.83-5.94,12.36-7.71s9.2-2.65,14.04-2.65c4.83,0,9.16,0.93,12.96,2.78
			c3.8,1.86,6.89,4.47,9.26,7.83c2.37,3.37,4,7.37,4.9,12c0.9,4.64,0.89,9.56-0.03,14.78H1501.68z"/>
	</g>
</g>
</svg>
