<svg width="129" height="91" viewBox="0 0 129 91" fill="none" xmlns="http://www.w3.org/2000/svg">
<path d="M5.08111 20.5155L0.130859 25.5107L64.5016 90.5121L69.4519 85.5168L5.08111 20.5155Z" fill="black"/>
<path d="M34.8009 30.5028L29.839 35.5116L14.9816 20.5139L10.0386 15.5051L14.9816 10.5059L19.9435 15.5051L34.8009 30.5028Z" fill="black"/>
<path d="M79.3647 75.5054L74.4122 80.5046L69.4692 75.5054L34.7925 40.5107L39.7544 35.502L74.4122 70.5156L79.3647 75.5054Z" fill="black"/>
<path d="M89.2698 65.5065L84.3174 70.5152L69.46 55.508L74.4124 50.5088L89.2698 65.5065Z" fill="black"/>
<path d="M69.469 45.51L64.5071 50.5092L19.9443 5.51608L24.8968 0.507324L29.8398 5.51608L69.469 45.51Z" fill="black"/>
<path d="M44.6998 0.510122L39.7495 5.50537L94.2166 60.506L99.1668 55.5107L44.6998 0.510122Z" fill="black"/>
<path d="M74.4146 10.5135L69.4644 15.5088L84.3166 30.5065L89.2668 25.5113L74.4146 10.5135Z" fill="black"/>
<path d="M94.2154 30.5223L89.2651 35.5176L104.117 50.5153L109.068 45.52L94.2154 30.5223Z" fill="black"/>
<path d="M84.316 0.522324L79.3657 5.51758L114.025 40.5167L118.976 35.5215L84.316 0.522324Z" fill="black"/>
<path d="M104.119 0.513046L99.1689 5.5083L123.925 30.5067L128.875 25.5115L104.119 0.513046Z" fill="black"/>
</svg>
