<svg width="245" height="43" viewBox="0 0 245 43" fill="none" xmlns="http://www.w3.org/2000/svg">
<g clip-path="url(#clip0_342_389)">
<path d="M2.36303 9.55883L-0.00195312 11.9453L30.7512 42.9997L33.1161 40.6132L2.36303 9.55883Z" fill="black"/>
<path d="M16.5616 14.3304L14.1911 16.7233L7.09298 9.55817L4.73145 7.16524L7.09298 4.77686L9.46352 7.16524L16.5616 14.3304Z" fill="black"/>
<path d="M37.852 35.8304L35.4859 38.2188L33.1244 35.8304L16.5576 19.1117L18.9282 16.7188L35.4859 33.4465L37.852 35.8304Z" fill="black"/>
<path d="M42.5843 31.0533L40.2182 33.4463L33.1201 26.2766L35.4862 23.8882L42.5843 31.0533Z" fill="black"/>
<path d="M33.1243 21.5L30.7537 23.8884L9.46387 2.39293L11.8299 0L14.1914 2.39293L33.1243 21.5Z" fill="black"/>
<path d="M21.2908 0.00121592L18.9258 2.3877L44.9474 28.6642L47.3124 26.2778L21.2908 0.00121592Z" fill="black"/>
<path d="M35.487 4.78051L33.1221 7.16699L40.2177 14.3322L42.5827 11.9457L35.487 4.78051Z" fill="black"/>
<path d="M44.947 14.3396L42.582 16.7261L49.6777 23.8912L52.0427 21.5048L44.947 14.3396Z" fill="black"/>
<path d="M40.2175 0.00707276L37.8525 2.39355L54.4112 19.1144L56.7762 16.7279L40.2175 0.00707276Z" fill="black"/>
<path d="M49.6785 0.00267823L47.3135 2.38916L59.1406 14.3322L61.5056 11.9457L49.6785 0.00267823Z" fill="black"/>
<path d="M73.7258 30.562H70.9902V6.01855H73.7258V16.9505H73.7664C74.5596 13.3065 77.0202 11.505 80.3507 11.505C85.4298 11.505 87.0523 14.8669 87.0523 18.8703V30.562H84.3167V19.4708C84.3167 16.7094 83.1674 14.0253 79.3998 14.0253C75.871 14.0253 73.7303 16.027 73.7303 19.4708V30.562H73.7258Z" fill="black"/>
<path d="M89.3105 21.3132C89.3105 15.1489 93.1593 11.5049 98.5944 11.5049C104.03 11.5049 107.045 14.9896 107.045 20.1531C107.045 20.5944 107.045 21.3541 106.963 22.1139H92.0912C92.3706 26.1991 94.7502 28.5193 98.6756 28.5193C102.326 28.5193 103.791 26.5995 104.467 24.1929L106.927 24.9117C105.976 28.6739 103.236 30.9986 98.6756 30.9986C92.925 30.9986 89.3151 27.3547 89.3151 21.3086L89.3105 21.3132ZM92.1273 19.8301H104.462C104.264 16.0678 102.322 13.9433 98.5133 13.9433C94.944 13.9433 92.5644 15.945 92.1273 19.8301Z" fill="black"/>
<path d="M121.48 25.7581H121.439C120.565 29.2838 117.951 30.9625 114.697 30.9625C110.97 30.9625 108.667 29.2428 108.667 25.7581C108.667 22.6736 110.772 20.2716 115.094 20.2716H121.48V19.0297C121.48 15.7451 120.29 13.9435 116.959 13.9435C114.026 13.9435 112.439 15.3447 111.88 18.7885L109.262 18.3473C109.897 13.8616 112.516 11.5415 117.036 11.5415C121.993 11.5415 124.175 14.1846 124.175 18.9478V30.5576H121.475V25.7535L121.48 25.7581ZM121.48 23.7154V22.5144H115.373C112.795 22.5144 111.367 23.5562 111.367 25.517C111.367 27.0364 112.399 28.6014 115.292 28.6014C119.141 28.6014 121.48 26.5178 121.48 23.7154Z" fill="black"/>
<path d="M127.672 30.562V11.9463H130.407V17.3509H130.489C131.165 13.5476 133.026 11.9463 136.081 11.9463H137.352V14.9488H135.847C132.156 14.9488 130.412 16.4683 130.412 20.3534V30.562H127.676H127.672Z" fill="black"/>
<path d="M142.106 14.3845H139.132V11.9415H142.106V6.61426H144.842V11.9415H151.07V14.3845H144.842V24.8752C144.842 27.1953 145.716 28.3599 147.934 28.3599C148.966 28.3599 149.799 28.2007 150.867 27.8777L151.264 30.398C150.034 30.7983 149.002 30.9985 147.456 30.9985C143.765 30.9985 142.102 28.5555 142.102 25.1117V14.3799L142.106 14.3845Z" fill="black"/>
<path d="M165.032 11.6235C169.751 11.6235 171.774 14.2667 171.932 17.8697H172.013L173.005 12.0239H175.109L172.212 28.5606C171.301 33.6877 168.088 36.5674 162.454 36.5674C156.821 36.5674 154.324 34.0834 154.243 29.8389L156.226 29.6797C156.424 32.8051 158.011 34.643 162.454 34.643C167.808 34.643 169.553 31.7997 170.229 28.0784L170.823 24.6755H170.666C169.435 27.5597 166.939 29.6797 162.932 29.6797C157.578 29.6797 155.117 25.7582 156.19 19.6303C157.064 14.667 160.476 11.6235 165.037 11.6235H165.032ZM171.378 21.3135V21.3954L171.459 21.036L171.418 21.1179C172.212 16.555 169.832 13.5115 165.312 13.5115C161.463 13.5115 158.966 15.8316 158.25 19.8396C157.375 24.9257 159.282 27.769 163.644 27.769C167.727 27.769 170.666 25.4489 171.378 21.3226V21.3135Z" fill="black"/>
<path d="M175.862 30.5618L179.116 12.0234H181.216L180.342 17.1505H180.383C181.653 13.7476 183.835 12.0234 187.007 12.0234H188.355L187.958 14.2662H186.57C182.722 14.2662 180.54 15.9495 179.788 20.0712L177.962 30.5618H175.862Z" fill="black"/>
<path d="M186.89 20.3536C187.882 14.3895 191.807 11.6235 196.805 11.6235C202.515 11.6235 205.967 15.9863 204.899 22.0323C203.908 27.719 200.257 30.999 194.863 30.999C188.833 30.999 185.818 26.3951 186.89 20.3491V20.3536ZM188.914 20.6357C188.121 25.3215 190.221 29.0019 195.061 29.0019C199.266 29.0019 202.083 26.3178 202.876 21.6729C203.709 16.9872 201.249 13.5843 196.571 13.5843C192.524 13.5843 189.707 15.9863 188.914 20.6312V20.6357Z" fill="black"/>
<path d="M220.407 25.6398H220.326C218.979 29.1655 216.279 31.0035 212.949 31.0035C208.032 31.0035 206.441 27.4414 207.157 23.438L209.14 12.0283H211.241L209.298 23.1195C208.784 26.0811 209.496 29.0063 213.62 29.0063C217.428 29.0063 220.164 26.8454 220.84 23.1195L222.782 12.0283H224.882L221.629 30.5667H219.528L220.403 25.6398H220.407Z" fill="black"/>
<path d="M235.477 31.0036C231.232 31.0036 229.051 28.3195 228.852 24.7164H228.735L226.752 36.167H224.647L228.852 12.0239H230.952L229.92 17.7878H229.961C231.268 14.2257 233.769 11.6235 237.933 11.6235C243.445 11.6235 245.789 15.7861 244.757 21.9914C243.765 27.6371 240.394 30.999 235.473 30.999L235.477 31.0036ZM242.697 21.7548C243.607 16.5095 241.863 13.5843 237.46 13.5843C233.296 13.5843 230.2 16.3048 229.366 21.1907V21.1088L229.285 21.4682L229.325 21.3863C228.492 25.9902 230.993 29.0747 235.198 29.0747C239.403 29.0747 241.863 26.3906 242.692 21.7457L242.697 21.7548Z" fill="black"/>
</g>
<defs>
<clipPath id="clip0_342_389">
<rect width="245" height="43" fill="white"/>
</clipPath>
</defs>
</svg>
