<svg width="504" height="348" viewBox="0 0 504 348" fill="none" xmlns="http://www.w3.org/2000/svg">
<g clip-path="url(#clip0_393_145)">
<mask id="mask0_393_145" style="mask-type:luminance" maskUnits="userSpaceOnUse" x="0" y="0" width="504" height="348">
<path d="M504 0H0V348H504V0Z" fill="white"/>
</mask>
<g mask="url(#mask0_393_145)">
<path d="M19.3881 77.3462L-0.000976562 96.6714L251.991 348.009L271.38 328.684L19.3881 77.3462Z" fill="black"/>
<path d="M135.701 115.98L116.285 135.344L58.14 77.354L38.7725 57.9902L58.14 38.6743L77.5557 57.9902L135.701 115.98Z" fill="black"/>
<path d="M310.137 289.999L290.77 309.315L271.402 289.999L135.664 154.671L155.09 135.323L290.77 270.689L310.137 289.999Z" fill="black"/>
<path d="M348.915 251.325L329.548 270.683L271.375 212.666L290.77 193.334L348.915 251.325Z" fill="black"/>
<path d="M96.9232 0L77.5557 19.3585L251.992 193.335L271.402 174.019L116.285 19.3585L96.9232 0Z" fill="black"/>
<path d="M174.472 0.0185547L155.083 19.3438L368.306 232.014L387.695 212.689L174.472 0.0185547Z" fill="black"/>
<path d="M290.778 38.6807L271.389 58.0059L329.539 116.006L348.928 96.6803L290.778 38.6807Z" fill="black"/>
<path d="M368.314 116.02L348.925 135.345L407.075 193.344L426.464 174.019L368.314 116.02Z" fill="black"/>
<path d="M329.547 0.0180664L310.158 19.3433L445.845 154.678L465.234 135.353L329.547 0.0180664Z" fill="black"/>
<path d="M407.091 0.0195312L387.702 19.3447L484.621 116.012L504.01 96.6868L407.091 0.0195312Z" fill="black"/>
</g>
</g>
<defs>
<clipPath id="clip0_393_145">
<rect width="504" height="348" fill="white"/>
</clipPath>
</defs>
</svg>
