<svg width="38" height="40" viewBox="0 0 38 40" fill="none" xmlns="http://www.w3.org/2000/svg">
<g clip-path="url(#clip0_422_14)">
<path d="M36.2371 13.0471C35.1052 12.3936 33.6632 12.78 33.0097 13.9119L27.6743 23.0692C27.6743 23.0692 27.3057 23.7077 26.6962 23.3558C26.0868 23.004 26.4554 22.3655 26.4554 22.3655L34.1003 9.12407C34.7538 7.9922 34.3537 6.59066 33.2219 5.93717C32.09 5.28369 30.7778 5.69663 30.1243 6.8285L22.4794 20.0699C22.4794 20.0699 22.034 20.6738 21.4318 20.3261C20.8296 19.9784 21.1588 19.3075 21.1588 19.3075L30.0772 3.86041C30.7307 2.72854 30.3761 1.38227 29.2442 0.728789C28.1124 0.0753046 26.7619 0.437159 26.1084 1.56903L17.1901 17.0161C17.1901 17.0161 16.805 17.6161 16.152 17.2391C15.499 16.8621 15.8623 16.2495 15.8623 16.2495L22.4893 4.77123C23.1428 3.63936 22.6639 2.42452 21.5321 1.77103C20.4002 1.11755 19.1625 1.35105 18.5132 2.47566L8.83246 19.2433C8.83246 19.2433 8.29215 19.9277 7.93046 18.0743C7.01007 13.3347 5.94098 11.8855 5.94098 11.8855C5.94098 11.8855 4.0735 9.10468 1.59921 10.7428C-0.198651 11.9299 0.636261 12.528 0.814819 15.3689C0.971992 17.8781 2.03931 24.8599 2.03931 24.8599C2.03931 24.8599 2.87627 33.866 8.99271 37.3973C8.99271 37.3973 20.6712 44.817 27.5118 32.9687L37.0988 16.263C37.7523 15.1312 37.3659 13.6892 36.234 13.0357" fill="#FFCB4E"/>
</g>
<defs>
<clipPath id="clip0_422_14">
<rect width="38" height="40" fill="white"/>
</clipPath>
</defs>
</svg>
