<svg width="44" height="40" viewBox="0 0 44 40" fill="none" xmlns="http://www.w3.org/2000/svg">
<g clip-path="url(#clip0_422_12)">
<path fill-rule="evenodd" clip-rule="evenodd" d="M44.0285 11.0071C44.0285 21.9057 33.2338 29.0424 22.3352 39.8655C22.1559 40.0448 21.8679 40.0448 21.6886 39.8655C10.7947 29.0424 0 21.9057 0 11.0071C0 4.92772 4.92772 0 11.0071 0C16.2417 0 18.984 2.48746 21.6083 7.46239C21.7263 7.68423 22.0048 7.77391 22.2267 7.65591C22.3069 7.61343 22.373 7.54735 22.4202 7.46239C25.0445 2.48746 27.7869 0 33.0214 0C39.1008 0 44.0285 4.92772 44.0285 11.0071Z" fill="#F05B55"/>
</g>
<defs>
<clipPath id="clip0_422_12">
<rect width="44" height="40" fill="white"/>
</clipPath>
</defs>
</svg>
