<svg width="32" height="40" viewBox="0 0 32 40" fill="none" xmlns="http://www.w3.org/2000/svg">
<g clip-path="url(#clip0_422_17)">
<path d="M3.23828 39.9999C5.2468 35.2067 5.95098 32.0618 5.78293 28.813C5.72692 27.6927 5.11076 26.4284 3.84644 24.724C2.58211 23.0115 0.645617 19.0025 0.133486 15.7297C-0.378646 12.4568 0.613609 7.91965 2.58211 5.31899C4.8787 2.31021 8.90374 0.237682 13.0728 0.0456329C17.4819 -0.16242 21.0268 0.309701 23.8516 2.11016C26.6763 3.91062 27.9086 6.69534 28.3487 9.11196C28.7888 11.5286 29.469 11.9527 28.7888 13.4971C28.2367 14.7614 28.7008 16.0097 29.6691 17.3141C30.6373 18.6184 31.8776 20.1548 31.7576 20.971C31.6456 21.7872 30.6373 21.9713 30.2692 22.1233C29.9011 22.2753 28.9649 22.2593 29.7971 24.0918C30.0292 24.6039 30.4693 25.2601 29.1889 25.9483C29.8851 26.3724 29.7731 26.5804 29.7811 26.8605C29.7891 27.3646 28.8208 27.6207 29.1169 28.845C29.413 30.0693 29.485 31.8218 28.3007 32.0458C26.0281 32.462 24.7078 32.0058 23.2354 32.0298C22.3392 32.0458 21.4109 32.574 21.1549 33.3502C20.7868 34.4945 20.5387 36.2149 20.7068 37.6953C20.8428 38.8636 21.0509 39.2797 21.4109 39.9999C19.9306 39.9999 3.22228 39.9999 3.22228 39.9999H3.23828Z" fill="#0187FF"/>
</g>
<defs>
<clipPath id="clip0_422_17">
<rect width="32" height="40" fill="white"/>
</clipPath>
</defs>
</svg>
