<svg width="142" height="41" viewBox="0 0 142 41" fill="none" xmlns="http://www.w3.org/2000/svg">
<g clip-path="url(#clip0_342_337)">
<path d="M55.4959 28.7839C54.3623 28.1209 53.7969 26.8922 53.7969 25.1034C53.7969 22.9763 54.7439 21.4797 56.6351 20.6164C58.5263 19.7531 61.2119 19.3201 64.6891 19.3201V17.9291C64.6891 17.128 64.4742 16.5083 64.0445 16.0644C63.6148 15.6233 62.8403 15.4014 61.718 15.4014C60.5957 15.4014 59.725 15.58 59.2416 15.9399C58.7582 16.2972 58.515 16.741 58.515 17.266V17.7071H54.6845C54.6619 17.5799 54.6506 17.3499 54.6506 17.0116C54.6506 15.58 55.2952 14.4515 56.5814 13.6315C57.8677 12.8115 59.5808 12.4001 61.7151 12.4001C64.0247 12.4001 65.7577 12.8521 66.9139 13.7587C68.0701 14.6653 68.6468 15.9616 68.6468 17.6449V25.577C68.6468 25.9559 68.757 26.2346 68.9775 26.4132C69.198 26.5918 69.4723 26.6811 69.803 26.6811H70.8603V29.271C70.1564 29.5877 69.3309 29.7446 68.3839 29.7446C67.5245 29.7446 66.8093 29.5444 66.2382 29.1438C65.6672 28.7433 65.2799 28.1967 65.082 27.5011H64.8502C63.5526 29.0194 61.7038 29.7771 59.3038 29.7771C57.8959 29.7771 56.6238 29.4442 55.4902 28.7812L55.4959 28.7839ZM63.5668 25.6717C64.3159 24.9545 64.6891 23.9857 64.6891 22.7652V22.0074C62.5547 22.0074 60.8812 22.2023 59.6713 22.592C58.4613 22.9817 57.8564 23.6934 57.8564 24.7245C57.8564 26.0722 58.7355 26.7461 60.4967 26.7461C61.7943 26.7461 62.8176 26.3889 63.5668 25.6717Z" fill="black"/>
<path d="M68.7168 12.7791H72.8102L74.9559 20.4892C75.1537 21.1631 75.4958 22.6596 75.9792 24.9762H76.1432C76.604 22.7435 76.9347 21.2578 77.1326 20.5217L79.0804 12.7791H83.3377L85.4184 20.5515C85.6162 21.3742 85.947 22.8491 86.4078 24.9762H86.5717C87.0127 22.9952 87.352 21.5203 87.5951 20.5515L89.6757 12.7791H93.4723L88.2905 29.401H84.1321L81.9864 20.7734C81.7659 19.9101 81.503 18.7193 81.1949 17.2038H81.0309C80.768 18.7004 80.5249 19.8803 80.3044 20.7436L78.0938 29.4037H73.9353L68.7196 12.7818L68.7168 12.7791Z" fill="black"/>
<path d="M94.366 27.6608C93.0006 26.2509 92.3193 24.0588 92.3193 21.0873C92.3193 18.1158 93.0063 15.9264 94.383 14.5138C95.7569 13.1038 97.8432 12.3975 100.639 12.3975C103.192 12.3975 105.1 13.0821 106.366 14.4515C107.633 15.8209 108.263 17.9588 108.263 20.8654V22.002H96.3477C96.4127 23.6447 96.7831 24.8517 97.4531 25.6203C98.123 26.3889 99.1973 26.7732 100.67 26.7732C101.77 26.7732 102.66 26.5052 103.344 25.9667C104.026 25.4282 104.368 24.6352 104.368 23.5798H108.263C108.263 25.623 107.559 27.1656 106.152 28.2102C104.744 29.2521 102.906 29.7744 100.639 29.7744C97.8234 29.7744 95.7314 29.0681 94.366 27.6581V27.6608ZM104.136 19.3174C104.136 16.7058 102.968 15.3987 100.636 15.3987C99.316 15.3987 98.3209 15.7208 97.6481 16.3621C96.9753 17.0062 96.5654 17.9886 96.4099 19.3174H104.133H104.136Z" fill="black"/>
<path d="M110.887 28.3563C109.578 27.4091 108.922 26.175 108.922 24.6595C108.922 24.4701 108.928 24.3429 108.939 24.2806C108.95 24.2184 108.956 24.1751 108.956 24.1534H112.817V24.4051C112.84 25.2278 113.208 25.834 113.923 26.221C114.638 26.6107 115.534 26.8056 116.614 26.8056C117.581 26.8056 118.406 26.654 119.09 26.3482C119.772 26.0424 120.114 25.585 120.114 24.9734C120.114 24.489 119.927 24.0939 119.551 23.7881C119.175 23.4823 118.714 23.2414 118.166 23.0601C117.615 22.8815 116.834 22.6758 115.822 22.4431C114.457 22.1264 113.34 21.8098 112.473 21.4959C111.602 21.1792 110.861 20.684 110.245 20.0101C109.629 19.3363 109.32 18.4513 109.32 17.3553C109.32 15.7748 110.002 14.5543 111.367 13.6883C112.733 12.825 114.502 12.392 116.682 12.392C118.025 12.392 119.223 12.5814 120.281 12.9603C121.338 13.3392 122.158 13.8723 122.74 14.557C123.322 15.2417 123.613 16.0265 123.613 16.9114L123.58 17.607H119.718V17.4798C119.718 16.8275 119.438 16.3161 118.876 15.948C118.313 15.58 117.504 15.3959 116.45 15.3959C115.396 15.3959 114.635 15.5502 114.106 15.8533C113.578 16.1591 113.315 16.5542 113.315 17.0386C113.315 17.6286 113.64 18.0643 114.287 18.3512C114.935 18.6353 115.933 18.9141 117.275 19.1874C118.729 19.504 119.899 19.8261 120.792 20.1508C121.683 20.4783 122.46 20.9871 123.119 21.6826C123.777 22.3781 124.108 23.3145 124.108 24.4944C124.108 26.3266 123.421 27.6662 122.045 28.5078C120.668 29.3495 118.805 29.7716 116.45 29.7716C114.095 29.7716 112.198 29.298 110.887 28.3508V28.3563Z" fill="black"/>
<path d="M127.028 27.6608C125.609 26.2509 124.899 24.0588 124.899 21.0873C124.899 18.1158 125.609 15.9264 127.028 14.5138C128.447 13.1038 130.587 12.3975 133.448 12.3975C136.309 12.3975 138.449 13.1038 139.868 14.5138C141.287 15.9264 141.997 18.1158 141.997 21.0873C141.997 24.0588 141.287 26.2482 139.868 27.6608C138.449 29.0735 136.309 29.7771 133.448 29.7771C130.587 29.7771 128.447 29.0708 127.028 27.6608ZM136.849 25.3686C137.553 24.4945 137.906 23.1414 137.906 21.3092V20.8681C137.906 19.0359 137.553 17.6828 136.849 16.8087C136.145 15.9346 135.011 15.4961 133.448 15.4961C131.885 15.4961 130.726 15.9346 130.033 16.8087C129.341 17.6828 128.993 19.0359 128.993 20.8681V21.3092C128.993 23.1414 129.341 24.4972 130.033 25.3686C130.726 26.2427 131.865 26.6812 133.448 26.6812C135.031 26.6812 136.145 26.2427 136.849 25.3686Z" fill="black"/>
<path d="M16.9049 34.0936L16.8908 34.0909C16.8823 34.0882 16.8766 34.0882 16.8682 34.0855L16.7607 34.0612C17.0576 34.1451 17.3601 34.21 17.6654 34.2614L16.9049 34.0936Z" fill="black"/>
<path d="M21.0128 31.0247C20.9648 31.0382 20.9167 31.049 20.8687 31.0571C20.9365 31.0436 21.0043 31.0301 21.075 31.0138C21.0524 31.0166 21.0326 31.022 21.0128 31.0247ZM20.0912 31.16C20.0488 31.1654 20.0093 31.1681 19.9669 31.1708C20.0319 31.1681 20.0941 31.1627 20.1619 31.1573C20.1393 31.1573 20.1139 31.1573 20.0912 31.16ZM21.5867 18.7247C21.5584 18.7138 21.5302 18.7057 21.5019 18.6976C21.4369 18.676 21.3775 18.6597 21.3125 18.6462C21.3436 18.657 21.3832 18.6651 21.4142 18.676C21.4793 18.6949 21.5443 18.7138 21.6065 18.7328C21.6008 18.7274 21.5923 18.7274 21.5867 18.7247ZM21.0072 18.5731C20.9506 18.5596 20.8913 18.5488 20.8347 18.5379C20.8234 18.5352 20.8093 18.5325 20.798 18.5325C20.8573 18.5461 20.9167 18.5596 20.9761 18.5704C21.0298 18.5812 21.0835 18.5921 21.1344 18.6029C21.0948 18.5894 21.0496 18.5812 21.0072 18.5731ZM21.0128 31.0247C20.9648 31.0382 20.9167 31.049 20.8687 31.0571C20.9365 31.0436 21.0043 31.0301 21.075 31.0138C21.0524 31.0166 21.0326 31.022 21.0128 31.0247ZM20.0912 31.16C20.0488 31.1654 20.0093 31.1681 19.9669 31.1708C20.0319 31.1681 20.0941 31.1627 20.1619 31.1573C20.1393 31.1573 20.1139 31.1573 20.0912 31.16ZM19.5259 18.4135C19.5032 18.4135 19.4835 18.4135 19.458 18.4162H19.6361C19.5994 18.4135 19.5626 18.4135 19.5259 18.4135ZM20.0912 31.16C20.0488 31.1654 20.0093 31.1681 19.9669 31.1708C20.0319 31.1681 20.0941 31.1627 20.1619 31.1573C20.1393 31.1573 20.1139 31.1573 20.0912 31.16ZM21.0128 31.0247C20.9648 31.0382 20.9167 31.049 20.8687 31.0571C20.9365 31.0436 21.0043 31.0301 21.075 31.0138C21.0524 31.0166 21.0326 31.022 21.0128 31.0247Z" fill="black"/>
<path d="M21.5866 18.7247C21.5583 18.7139 21.53 18.7058 21.5018 18.6977C21.4367 18.676 21.3774 18.6598 21.3124 18.6463C21.3435 18.6571 21.383 18.6652 21.4141 18.676C21.4791 18.695 21.5442 18.7139 21.6064 18.7329C21.6007 18.7274 21.5922 18.7274 21.5866 18.7247ZM21.007 18.5732C20.9505 18.5597 20.8911 18.5488 20.8346 18.538C20.8233 18.5353 20.8092 18.5326 20.7979 18.5326C20.8572 18.5461 20.9166 18.5597 20.9759 18.5705C21.0297 18.5813 21.0834 18.5921 21.1343 18.603C21.0947 18.5894 21.0494 18.5813 21.007 18.5732Z" fill="black"/>
<path d="M21.7281 18.7712C21.7082 18.7629 21.6912 18.7573 21.6713 18.7518C21.6656 18.749 21.66 18.749 21.6543 18.749C21.6827 18.7573 21.711 18.7657 21.7394 18.7767C21.7366 18.774 21.7309 18.7712 21.7281 18.7712Z" fill="black"/>
<path d="M21.4141 0C9.58615 0 0 9.17967 0 20.5C0 31.8203 9.58615 41 21.4141 41C33.242 41 42.8281 31.823 42.8281 20.5C42.8281 9.17696 33.2392 0 21.4141 0ZM33.3353 10.319C33.3353 10.319 33.3296 10.3488 33.324 10.3623H33.3268L30.3981 22.5622L30.3811 22.6271L30.3755 22.6623L30.0843 23.8666L29.7196 25.3875L29.4652 26.4484C29.4369 26.5972 29.403 26.7461 29.3719 26.8949C29.3521 26.968 29.3323 27.0438 29.3154 27.1168C29.2956 27.1926 29.2758 27.2684 29.2532 27.3442L29.239 27.3902V27.3956L29.2334 27.4145C29.1655 27.6391 29.092 27.8611 29.0101 28.0803C28.9535 28.2264 28.8941 28.3725 28.832 28.516C28.7302 28.7568 28.6143 28.9923 28.4899 29.225C28.1648 29.8312 27.7662 30.4104 27.2941 30.9489C27.2319 31.0193 27.1725 31.0896 27.1075 31.16C26.969 31.3143 26.822 31.4658 26.6665 31.6147C26.6354 31.6444 26.5987 31.6769 26.5676 31.704C26.4573 31.8068 26.3499 31.9042 26.2368 31.9989C26.2142 32.0179 26.1944 32.0368 26.1718 32.0531C26.1633 32.0612 26.152 32.0693 26.1435 32.0774C26.0559 32.1505 25.9683 32.2209 25.8806 32.2885C25.8637 32.302 25.8439 32.3156 25.8326 32.3291C25.8213 32.3345 25.8184 32.3399 25.81 32.3453C25.7167 32.4157 25.6206 32.4861 25.5244 32.5537C25.5244 32.5564 25.5216 32.5564 25.5216 32.5564C25.4453 32.6079 25.3718 32.6566 25.3011 32.7053C25.2163 32.7648 25.1287 32.8216 25.0382 32.8785C24.9195 32.9515 24.7979 33.0219 24.6764 33.0923C24.6622 33.0977 24.6453 33.1058 24.634 33.1166C24.6283 33.1193 24.617 33.1248 24.6142 33.1275C24.6142 33.1275 24.6142 33.1302 24.6085 33.1302C24.5463 33.1653 24.487 33.1951 24.4276 33.2276C24.3569 33.2655 24.2891 33.3034 24.2184 33.3358C24.1816 33.3521 24.1477 33.371 24.111 33.3873C24.0601 33.417 24.0064 33.4414 23.9527 33.463C23.93 33.4739 23.9103 33.4847 23.8876 33.4928C23.8509 33.5117 23.8113 33.5307 23.7689 33.5469C23.7689 33.5469 23.7633 33.5496 23.7604 33.5523C23.6813 33.5902 23.5993 33.6227 23.5201 33.6498C23.5117 33.6552 23.506 33.6579 23.4975 33.6606C23.4353 33.6877 23.3731 33.712 23.3109 33.7364C23.2996 33.7391 23.2883 33.7445 23.2742 33.7472C23.2685 33.7472 23.2601 33.7526 23.2516 33.758C23.2459 33.7634 23.2403 33.7634 23.2318 33.7661C23.229 33.7661 23.229 33.7688 23.2261 33.7688C23.1724 33.7905 23.1131 33.8121 23.0593 33.8284C23.048 33.8311 23.0396 33.8365 23.0282 33.8392C23.0254 33.8419 23.0169 33.8419 23.0169 33.8446C23.0056 33.8473 22.9972 33.8527 22.9858 33.8554C22.9576 33.8663 22.9293 33.8744 22.8982 33.8852C22.8784 33.8906 22.8586 33.896 22.8388 33.9042C22.788 33.9258 22.7371 33.9393 22.6862 33.9556C22.6692 33.961 22.6523 33.9664 22.6353 33.9691C22.5675 33.9908 22.4968 34.0097 22.4289 34.0314C22.4261 34.0314 22.4205 34.0341 22.4176 34.0368C22.2848 34.0719 22.1547 34.1071 22.0247 34.1396H22.019C21.8805 34.1721 21.7448 34.2018 21.6091 34.2316C21.6035 34.2343 21.5978 34.237 21.5922 34.237C21.4621 34.2614 21.3293 34.2857 21.1992 34.3047C21.1738 34.3101 21.1512 34.3155 21.1257 34.3182C21.0126 34.3345 20.8967 34.348 20.7865 34.3615C20.6508 34.3778 20.5151 34.3913 20.3766 34.4021C20.2352 34.4129 20.1024 34.4211 19.9667 34.4265C19.8819 34.4319 19.7971 34.4319 19.7122 34.4346H19.5737C19.4465 34.4346 19.3165 34.4319 19.1864 34.4265C19.1299 34.4265 19.0705 34.4265 19.0112 34.4184C18.9179 34.4156 18.8218 34.4102 18.7285 34.4021C18.6946 34.3994 18.6578 34.3967 18.6239 34.3913C18.5504 34.3859 18.4769 34.3805 18.4005 34.3696C18.2281 34.3507 18.0557 34.3263 17.8804 34.2993C17.8606 34.2966 17.8465 34.2939 17.8267 34.2912C17.8041 34.2857 17.7815 34.283 17.7588 34.2803C17.7362 34.2749 17.7136 34.2695 17.691 34.2668C17.6853 34.2641 17.6712 34.2641 17.6655 34.2614C17.3602 34.21 17.0578 34.145 16.7609 34.0611L16.6083 34.0259C14.0612 33.2898 11.941 31.6065 10.6858 29.4117H10.7C10.3183 28.746 10.0272 28.0424 9.82644 27.3198C9.81231 27.2765 9.801 27.2305 9.78969 27.1872C9.76425 27.0735 9.75294 26.9545 9.75294 26.8354C9.75294 26.627 9.78969 26.4294 9.86885 26.2481C10.1091 25.6419 10.7282 25.2116 11.4491 25.2116C11.7629 25.2116 12.0597 25.2928 12.3113 25.4389C12.6873 25.65 12.9672 25.9964 13.0859 26.4051C13.1764 26.7352 13.2923 27.0573 13.4364 27.3739C13.4393 27.3766 13.4364 27.3793 13.4393 27.3793C13.5552 27.6391 13.6937 27.8908 13.852 28.1344C13.9029 28.2156 13.9566 28.2968 14.0131 28.3752H14.0244C14.9828 29.7284 16.4415 30.662 18.067 31.0193C18.1065 31.0301 18.149 31.0382 18.1885 31.0463C18.2083 31.049 18.2281 31.0545 18.2451 31.0572C18.2507 31.0572 18.2535 31.0572 18.2564 31.0572C18.2733 31.0626 18.2903 31.0653 18.3044 31.0653C18.3779 31.0815 18.4571 31.095 18.5362 31.1059C18.5871 31.114 18.6465 31.1248 18.703 31.1302C18.7765 31.1383 18.8557 31.1465 18.932 31.1546C18.9377 31.1519 18.9405 31.1519 18.9405 31.1546C19.0112 31.16 19.079 31.1654 19.1469 31.1681C19.3532 31.1816 19.5624 31.1844 19.7688 31.1762C19.8112 31.1762 19.8564 31.1762 19.9017 31.1708C19.9214 31.1708 19.9441 31.1708 19.9667 31.1681C20.0091 31.1654 20.0487 31.1627 20.0911 31.1573C20.1137 31.1546 20.1391 31.1546 20.1617 31.1546C20.2013 31.1519 20.2352 31.1465 20.2776 31.1411C20.2861 31.1438 20.2974 31.1411 20.3059 31.1411C20.3483 31.1383 20.3907 31.1329 20.4275 31.1275C20.4699 31.1275 20.5094 31.1194 20.5462 31.1113C20.566 31.1113 20.5829 31.1059 20.5971 31.1032C20.6451 31.0978 20.6875 31.0896 20.7384 31.0815C20.778 31.0734 20.8261 31.0653 20.8685 31.0572C20.9165 31.049 20.9646 31.0382 21.0126 31.0247C21.0324 31.022 21.0522 31.0166 21.0748 31.0139C21.1766 30.9895 21.2812 30.9651 21.3858 30.9354C21.4254 30.9246 21.465 30.9137 21.5074 30.9002C21.5582 30.884 21.612 30.8677 21.6685 30.8515C21.6883 30.8461 21.7081 30.838 21.7279 30.8325C21.7392 30.8298 21.7476 30.8244 21.7618 30.819C21.8466 30.7892 21.9314 30.7595 22.0162 30.727C22.0982 30.6972 22.1773 30.6648 22.2565 30.6296C24.5746 29.6283 26.1972 27.3929 26.1972 24.8003C26.1972 24.2861 26.1379 23.7854 26.0107 23.3064C25.9457 23.0277 25.858 22.757 25.7478 22.4945C25.7478 22.4918 25.7449 22.4918 25.7449 22.4891C25.7082 22.4025 25.6714 22.3186 25.6319 22.2347C25.6149 22.1941 25.5951 22.1508 25.5725 22.1102C25.5414 22.0399 25.5046 21.9695 25.4651 21.8991C25.4057 21.7828 25.3407 21.6691 25.27 21.5582C25.27 21.5554 25.27 21.5527 25.2672 21.55C25.2078 21.4553 25.1456 21.3606 25.0806 21.2713C25.0156 21.1793 24.9506 21.09 24.8799 21.0007C24.8064 20.9032 24.7301 20.8112 24.6509 20.7192C24.6453 20.7138 24.6424 20.7111 24.6396 20.7084C24.5576 20.611 24.47 20.5189 24.3824 20.4296C24.3004 20.343 24.2127 20.2591 24.1251 20.1807C24.1081 20.1671 24.0912 20.1509 24.0742 20.1347C23.9922 20.0616 23.9046 19.9885 23.817 19.9181C23.7463 19.8586 23.6756 19.8018 23.5993 19.7477C23.4975 19.6719 23.3929 19.5988 23.2883 19.5312C23.2063 19.4743 23.1215 19.4229 23.0339 19.3715C22.935 19.3119 22.8304 19.2551 22.7258 19.1983H22.7229C22.6438 19.1577 22.5703 19.1198 22.494 19.0846C22.4431 19.0576 22.3922 19.0332 22.3385 19.0116C22.3046 18.9953 22.2678 18.9791 22.2311 18.9655C22.2113 18.9574 22.1915 18.9493 22.1689 18.9412C22.1491 18.9331 22.1265 18.9222 22.1067 18.9114C22.0671 18.8952 22.0247 18.8789 21.9823 18.8654C21.9738 18.86 21.9653 18.8546 21.954 18.8519C21.9455 18.8465 21.9342 18.8438 21.9257 18.8411C21.906 18.8329 21.8862 18.8248 21.8664 18.8194C21.824 18.8032 21.7816 18.7896 21.7392 18.7761C21.7109 18.7653 21.6826 18.7572 21.6544 18.749C21.6487 18.7463 21.6459 18.7436 21.6402 18.7436H21.6374C21.6374 18.7436 21.6176 18.7355 21.6063 18.7328C21.5441 18.7139 21.4791 18.6949 21.4141 18.676C21.383 18.6651 21.3434 18.657 21.3123 18.6462C21.3095 18.6462 21.3038 18.6408 21.2953 18.6462C21.2445 18.63 21.1907 18.6164 21.1342 18.6056C21.0833 18.5948 21.0296 18.584 20.9759 18.5731C20.9165 18.5623 20.8572 18.5488 20.7978 18.5352C20.7384 18.5217 20.6762 18.5109 20.614 18.5028C20.5886 18.4947 20.5575 18.4892 20.5292 18.4892C20.4981 18.4865 20.4699 18.4811 20.4388 18.4784C20.419 18.4784 20.3992 18.473 20.3794 18.4703C20.3172 18.4595 20.255 18.4514 20.19 18.4486C20.1278 18.4432 20.0628 18.4378 20.0006 18.4351C19.9243 18.427 19.8479 18.4243 19.7688 18.4216C19.7264 18.4189 19.6812 18.4162 19.6359 18.4189C19.5002 18.4189 19.3589 18.4216 19.2204 18.427C18.85 18.4432 18.4882 18.4892 18.1263 18.565C18.0076 18.5921 17.8832 18.6191 17.7645 18.6516C17.7277 18.6624 17.6882 18.6706 17.6458 18.6814C17.5977 18.6922 17.5496 18.7084 17.5044 18.722C17.4253 18.7463 17.3461 18.7734 17.2669 18.8005C17.2613 18.8032 17.2585 18.8032 17.2528 18.8059C17.2048 18.8221 17.1539 18.8383 17.1058 18.8546C17.0521 18.8762 16.9956 18.8979 16.939 18.9222C16.8316 18.9655 16.7242 19.0116 16.6196 19.0603C16.5122 19.1117 16.3991 19.1631 16.2945 19.2226C16.2153 19.2632 16.139 19.3065 16.0655 19.3525C15.9722 19.4013 15.8846 19.4554 15.7998 19.5149C15.7121 19.569 15.6273 19.6259 15.5482 19.6881C15.3757 19.8072 15.2146 19.9371 15.0563 20.0751C14.98 20.1428 14.9008 20.2131 14.8245 20.2862C14.7623 20.3457 14.7029 20.4053 14.6435 20.4675C14.4994 20.6164 14.3609 20.7733 14.2336 20.9357C14.1828 21.0007 14.1347 21.0656 14.0866 21.1306C14.0386 21.1982 13.9934 21.2659 13.9453 21.3335C13.852 21.4688 13.7644 21.6096 13.688 21.7503C13.6428 21.8234 13.6061 21.8937 13.5693 21.9668C13.5297 22.0399 13.4958 22.1129 13.4591 22.186C13.428 22.2618 13.3912 22.3349 13.3601 22.4106C13.2979 22.5622 13.2386 22.7137 13.1905 22.868C13.1651 22.9383 13.1453 23.0087 13.1227 23.0764C13.1198 23.0953 13.1113 23.1143 13.1057 23.1332C13.0944 23.1657 13.0887 23.2009 13.0774 23.236C13.0718 23.2712 13.0605 23.3064 13.052 23.3389C13.052 23.3308 13.0548 23.3281 13.0548 23.3199C12.888 24.0506 12.2096 24.5973 11.3926 24.5973C10.4568 24.5973 9.69358 23.8693 9.69358 22.9708C9.69358 22.895 9.70206 22.8193 9.71054 22.7462C9.71054 22.7435 9.71054 22.7381 9.71336 22.7354C9.71902 22.7137 9.72185 22.6948 9.72467 22.6731C9.72467 22.6731 9.72467 22.6677 9.7275 22.665C9.73315 22.6298 9.74163 22.5947 9.75294 22.5595C9.75294 22.5351 9.76142 22.5108 9.77273 22.4864C9.77556 22.4783 9.77838 22.4675 9.78121 22.4593C9.78121 22.4566 9.78121 22.4539 9.78404 22.4512C9.78121 22.4458 9.78404 22.4431 9.78686 22.4404C9.81796 22.3051 9.85754 22.1671 9.90277 22.0317C9.97062 21.8044 10.0498 21.5798 10.1374 21.3579C10.2081 21.1847 10.2816 21.0115 10.3664 20.8437C10.4653 20.6326 10.5756 20.4242 10.6915 20.2213C10.8441 19.9452 11.0109 19.68 11.1947 19.4202C11.2258 19.3769 11.2597 19.3309 11.2908 19.2876C11.3671 19.1766 11.4491 19.0711 11.5311 18.9655C11.5339 18.9628 11.5339 18.9601 11.5339 18.9601C11.6102 18.8654 11.6894 18.7707 11.7657 18.6787C11.8505 18.584 11.9353 18.4892 12.0201 18.3945C12.0597 18.3539 12.0936 18.316 12.1332 18.2782C12.2265 18.178 12.3226 18.0806 12.4216 17.9886C12.6025 17.81 12.7919 17.6422 12.9898 17.4852C13.3064 17.2173 13.6428 16.9737 13.999 16.7545C14.2082 16.6219 14.423 16.4974 14.6435 16.3811C14.652 16.3756 14.6605 16.3729 14.6662 16.3675C14.8782 16.2566 15.093 16.1537 15.3135 16.0563C15.322 16.0509 15.3361 16.0482 15.3418 16.0428C15.4747 15.9859 15.6047 15.9318 15.7376 15.8804C15.828 15.8452 15.9157 15.8127 16.0061 15.7803C16.0118 15.7776 16.0203 15.7721 16.0287 15.7694C16.1051 15.7451 16.1814 15.7126 16.2549 15.6883C17.6401 15.2309 19.0564 15.0793 20.4246 15.1957L15.78 9.16343C15.7404 9.11743 15.7036 9.06871 15.6669 9.01729C15.4888 8.75749 15.3842 8.44627 15.3842 8.11069C15.3842 7.19327 16.1616 6.45175 17.1171 6.45175C17.6542 6.45175 18.132 6.68449 18.4486 7.05254C18.4882 7.09855 18.5278 7.14455 18.5589 7.19597L23.7491 13.9346L21.9286 7.36106H21.9342C21.6883 6.47881 22.2339 5.57762 23.1555 5.34218C24.0742 5.10673 25.0212 5.62904 25.2672 6.50858L25.27 6.51129L28.2326 17.1875L30.0391 9.66139C30.0391 9.66139 30.0419 9.65597 30.0419 9.65327C30.0419 9.65056 30.0447 9.64515 30.0447 9.64244C30.2454 8.77644 31.1331 8.22706 32.0405 8.41109C32.948 8.59782 33.5275 9.453 33.3353 10.3217V10.319Z" fill="black"/>
<path d="M19.9662 34.4265C19.8814 34.4319 19.7966 34.4319 19.7118 34.4346H19.5732C19.7033 34.4346 19.8333 34.4319 19.9662 34.4265Z" fill="black"/>
<path d="M21.1989 34.3047C21.1734 34.3101 21.1508 34.3155 21.1254 34.3182C21.0123 34.3345 20.8964 34.348 20.7861 34.3615C20.9218 34.3453 21.0603 34.3263 21.1989 34.3047Z" fill="black"/>
<path d="M21.6091 34.2316C21.6091 34.2316 21.5978 34.237 21.5922 34.237C21.4621 34.2613 21.3293 34.2857 21.1992 34.3046C21.3377 34.283 21.4734 34.2586 21.6091 34.2316Z" fill="black"/>
<path d="M22.8393 33.9042C22.7884 33.9258 22.7375 33.9394 22.6866 33.9556C22.6697 33.961 22.6527 33.9664 22.6357 33.9691C22.7036 33.9502 22.7714 33.9285 22.8393 33.9042Z" fill="black"/>
<path d="M10.366 20.8409C10.185 21.2279 10.0324 21.6231 9.90234 22.029C9.97019 21.8017 10.0493 21.577 10.137 21.3551C10.2077 21.1819 10.2812 21.0087 10.366 20.8409Z" fill="black"/>
<path d="M17.5041 18.7192C17.4249 18.7436 17.3458 18.7707 17.2666 18.7977C17.261 18.8004 17.2581 18.8004 17.2525 18.8031C17.2044 18.8194 17.1535 18.8356 17.1055 18.8518C17.1931 18.8194 17.2807 18.7896 17.3655 18.7598C17.4108 18.7436 17.456 18.7301 17.5041 18.7192Z" fill="black"/>
<path d="M18.1261 18.5623C18.0074 18.5893 17.883 18.6164 17.7642 18.6489C17.7275 18.6597 17.6879 18.6678 17.6455 18.6786C17.8038 18.6326 17.965 18.592 18.1261 18.5623Z" fill="black"/>
<path d="M19.285 18.4188C19.2624 18.4215 19.2426 18.4215 19.22 18.4242C18.8497 18.4405 18.4878 18.4865 18.126 18.5623C18.5104 18.4784 18.9006 18.4296 19.285 18.4188Z" fill="black"/>
<path d="M20.5297 18.4866C20.4986 18.4839 20.4703 18.4785 20.4393 18.4758C20.4195 18.4758 20.3997 18.4704 20.3799 18.4677C20.4279 18.4704 20.4817 18.4758 20.5297 18.4866Z" fill="black"/>
<path d="M21.7394 18.7767C21.711 18.7657 21.6827 18.7573 21.6543 18.749C21.66 18.749 21.6656 18.749 21.6713 18.7518C21.6912 18.7573 21.7082 18.7629 21.7281 18.7712C21.7309 18.7712 21.7366 18.774 21.7394 18.7767Z" fill="black"/>
<path d="M22.2563 30.6295C24.5744 29.6282 26.197 27.3928 26.197 24.8002C26.197 24.286 26.1377 23.7854 26.0104 23.3064C25.9454 23.0276 25.8578 22.757 25.7475 22.4945C25.7475 22.4918 25.7447 22.4918 25.7447 22.4891C25.708 22.4025 25.6712 22.3186 25.6316 22.2347C25.6147 22.1941 25.5949 22.1508 25.5723 22.1102C25.5412 22.0398 25.5044 21.9695 25.4649 21.8991C25.4055 21.7827 25.3405 21.6691 25.2698 21.5581C25.2698 21.5554 25.2698 21.5527 25.267 21.55C25.2076 21.4553 25.1454 21.3606 25.0804 21.2712C25.0154 21.1792 24.9503 21.0899 24.8797 21.0006C24.809 20.9032 24.7298 20.8112 24.6507 20.7192C24.645 20.7138 24.6422 20.711 24.6394 20.7083C24.5574 20.6109 24.4698 20.5189 24.3821 20.4296C24.3002 20.343 24.2125 20.2591 24.1249 20.1806C24.1079 20.1671 24.091 20.1509 24.074 20.1346C23.992 20.0588 23.9044 19.9858 23.8167 19.9181C23.7461 19.8586 23.6754 19.8017 23.5991 19.7476C23.4973 19.6718 23.3927 19.5988 23.2881 19.5311C23.2061 19.4743 23.1213 19.4202 23.0337 19.3714C22.9347 19.3092 22.8301 19.2524 22.7255 19.1982H22.7227C22.6436 19.1576 22.5701 19.1198 22.4937 19.0846C22.4429 19.0575 22.392 19.0332 22.3383 19.0115C22.3043 18.9953 22.2676 18.979 22.2308 18.9655C22.211 18.9574 22.1913 18.9493 22.1686 18.9411C22.1488 18.933 22.1262 18.9222 22.1064 18.9114C22.146 18.9249 22.1828 18.9411 22.2195 18.9547C22.2591 18.9682 22.2959 18.9844 22.3326 19.0007C22.4061 19.0305 22.4796 19.0656 22.5531 19.1008C22.686 19.1658 22.8132 19.2334 22.9432 19.3038C23.0054 19.339 23.0676 19.3741 23.1298 19.4147C23.1948 19.4499 23.257 19.4905 23.3164 19.5311C23.3786 19.569 23.4379 19.6096 23.4973 19.6529C23.5567 19.6935 23.616 19.7368 23.6726 19.7801C23.7885 19.864 23.9044 19.956 24.0146 20.0534C24.1249 20.1481 24.2323 20.2456 24.3341 20.3484C24.4387 20.4485 24.5404 20.5568 24.6366 20.665C24.6366 20.665 24.6394 20.665 24.6394 20.6677C24.8316 20.8815 25.0069 21.1116 25.168 21.3524C25.4451 21.7665 25.6769 22.2211 25.855 22.7083C26.9942 25.8638 25.3885 29.3062 22.2563 30.6295Z" fill="black"/>
<path d="M28.832 28.516C28.7302 28.7568 28.6143 28.9923 28.4899 29.225L28.4277 29.3198C28.4588 29.2629 28.4928 29.2061 28.5239 29.1493C28.6341 28.9409 28.7359 28.7298 28.832 28.516Z" fill="black"/>
<path d="M29.4367 26.5702C29.4169 26.6757 29.3943 26.784 29.3688 26.8895C29.3519 26.9653 29.3293 27.0411 29.3151 27.1169C29.2953 27.1926 29.2755 27.2684 29.2529 27.3442L29.3604 26.8787L29.4367 26.5702Z" fill="black"/>
<path d="M19.6363 18.4162C19.5006 18.4162 19.3592 18.4189 19.2207 18.4243C19.2433 18.4243 19.2631 18.4243 19.2857 18.4189C19.314 18.4162 19.3423 18.4162 19.3734 18.4162H19.4582C19.4836 18.4135 19.5034 18.4135 19.526 18.4135C19.5628 18.4135 19.5995 18.4135 19.6363 18.4162Z" fill="black"/>
<path d="M23.2524 33.7581C23.2524 33.7581 23.2404 33.764 23.2314 33.767C23.2374 33.767 23.2404 33.767 23.2434 33.761C23.2464 33.761 23.2494 33.7581 23.2524 33.7581Z" fill="black"/>
<path d="M28.4903 29.225C28.1652 29.8312 27.7666 30.4103 27.2945 30.9489C27.2323 31.0192 27.1729 31.0896 27.1079 31.16C26.9694 31.3142 26.8224 31.4658 26.6669 31.6146C26.6358 31.6444 26.599 31.6769 26.568 31.7039C26.4577 31.8068 26.3503 31.9042 26.2372 31.9989C26.2146 32.0178 26.1948 32.0368 26.1722 32.053C26.1637 32.0611 26.1524 32.0693 26.1439 32.0774C26.0563 32.1505 25.9686 32.2208 25.881 32.2885C25.864 32.302 25.8443 32.3155 25.8329 32.3291C25.8216 32.3345 25.8188 32.3399 25.8103 32.3453C25.717 32.4157 25.6209 32.486 25.5248 32.5537C25.5248 32.5564 25.522 32.5564 25.522 32.5564C25.4457 32.6078 25.3722 32.6565 25.3015 32.7052C25.2167 32.7648 25.129 32.8216 25.0386 32.8784C24.9198 32.9515 24.7983 33.0219 24.6767 33.0922C24.6626 33.0976 24.6456 33.1058 24.6343 33.1166C24.6287 33.1193 24.6174 33.1247 24.6145 33.1274C24.6145 33.1274 24.6145 33.1301 24.6089 33.1301C24.5467 33.1653 24.4873 33.1951 24.428 33.2276C24.3573 33.2654 24.2894 33.3006 24.2188 33.3358C24.182 33.352 24.1481 33.371 24.1113 33.3872C24.0605 33.417 24.0067 33.4413 23.953 33.463C23.9304 33.4738 23.9106 33.4846 23.888 33.4928C23.8513 33.5117 23.8117 33.5307 23.7693 33.5469C23.7693 33.5469 23.7636 33.5496 23.7608 33.5523C23.6788 33.5875 23.5997 33.62 23.5205 33.6497C23.6703 33.5848 23.8258 33.5198 23.9785 33.4495C23.9841 33.4441 23.9954 33.4413 24.0039 33.4359C24.3036 33.2925 24.5947 33.1355 24.8746 32.965C24.9736 32.9055 25.0782 32.8433 25.1771 32.7756C25.2025 32.7594 25.228 32.7431 25.2534 32.7242C25.2789 32.7079 25.31 32.689 25.3354 32.6701C25.44 32.5997 25.5446 32.5266 25.6464 32.4509C25.7255 32.394 25.799 32.3372 25.8753 32.2776C25.9856 32.191 26.0987 32.1017 26.2061 32.007C26.3135 31.9177 26.4209 31.823 26.5255 31.7256C26.992 31.2926 27.416 30.8163 27.7864 30.3048L28.3348 29.4658L28.4111 29.3441C28.4111 29.3441 28.4111 29.3359 28.4196 29.3332C28.4224 29.3278 28.4252 29.3251 28.4281 29.3197L28.4903 29.225Z" fill="black"/>
</g>
<defs>
<clipPath id="clip0_342_337">
<rect width="142" height="41" fill="white"/>
</clipPath>
</defs>
</svg>
