<svg width="84" height="42" viewBox="0 0 84 42" fill="none" xmlns="http://www.w3.org/2000/svg">
<g clip-path="url(#clip0_342_290)">
<g clip-path="url(#clip1_342_290)">
<path d="M84.3671 -0.215698H35.4268V1.69336H84.3671V-0.215698Z" fill="black"/>
<path d="M84.3671 38.9519H35.4268V40.861H84.3671V38.9519Z" fill="black"/>
<path d="M39.0622 7.43982H40.2878C41.7256 7.43982 42.4857 7.82495 42.4857 9.01916C42.4857 10.2134 41.7256 10.8534 40.2878 10.8534H39.0622V7.43982ZM46.0387 9.01916C46.0387 5.564 43.5021 4.53882 40.5412 4.53882H35.4238V18.4038H39.0594V13.7516H40.3732L42.7391 18.4038H46.7989L43.8105 13.0146C45.1491 12.2887 46.0387 10.9975 46.0387 9.01639" fill="black"/>
<path d="M52.2948 12.8594H57.1588V9.78666H52.2948V7.6116H58.0044V4.53882H48.6592V18.4065H58.2137V15.3337H52.2948V12.8594Z" fill="black"/>
<path d="M61.5557 18.4038H65.194V13.3277H70.1407V10.2549H65.194V7.6116H70.9642V4.53882H61.5557V18.4038Z" fill="black"/>
<path d="M39.0624 22.2219H35.4268V36.0869H44.9207V33.0169H39.0624V22.2219Z" fill="black"/>
<path d="M54.5781 27.769H49.7168V30.839H54.5781V33.0169H48.8713V36.0869H58.2164V22.2219H48.6592V25.2947H54.5781V27.769Z" fill="black"/>
<path d="M67.5192 33.1888C65.6574 33.1888 64.3491 31.7369 64.3491 29.1352C64.3491 26.5334 65.6601 25.1258 67.3512 25.1258C68.2822 25.1258 68.957 25.4666 69.5932 26.0208L71.5818 23.7599C70.6095 22.8206 69.1305 21.9672 67.354 21.9672C63.633 21.9672 60.6309 24.6132 60.6309 29.2626C60.6309 33.912 63.7184 36.3447 67.1419 36.3447C69.0038 36.3447 70.6095 35.6631 71.7498 34.2971L69.7612 32.0777C69.169 32.7178 68.4089 33.186 67.5192 33.186" fill="black"/>
<path d="M72.8223 22.2219V25.2947H76.7746V36.0869H80.413V25.2947H84.3653V22.2219H72.8223Z" fill="black"/>
<path d="M83.313 11.452L76.2787 4.35327L73.877 6.7777L78.5096 11.452L73.877 16.1291L76.2787 18.5535L83.313 11.4548L83.3103 11.452H83.313Z" fill="black"/>
<path d="M12.8196 12.1559H10.9385V17.545H12.8196V12.1559Z" fill="black"/>
<path d="M16.5872 12.1559H14.7061V26.7135H16.5872V12.1559Z" fill="black"/>
<path d="M31.6594 -0.215698H26.0049V1.69336H31.6594V-0.215698Z" fill="black"/>
<path d="M5.28552 4.53882H-0.366211V6.44788H5.28552V4.53882Z" fill="black"/>
<path d="M3.40234 8.34607V10.2551H18.4461H27.8932V8.34607H22.6078H3.40234Z" fill="black"/>
<path d="M6.40925 -0.215698H-0.366211V1.69336H5.35162L10.9372 6.44801H11.0309H20.3568V4.53895H11.9921L6.40925 -0.215698Z" fill="black"/>
<path d="M26.007 6.44801H26.0841H31.6642V4.53895H27.0619L21.468 -0.215698L21.4542 -0.201845V-0.215698H10.9385V1.69336H20.4048L26.007 6.44801Z" fill="black"/>
<path d="M31.071 39.3731C30.3356 39.8386 29.3992 40.2015 28.3829 40.2071C27.3665 40.2015 26.4273 39.8386 25.6947 39.3731V39.3786C25.2265 39.0849 24.8877 38.7857 24.7252 38.6333L24.1275 38.0625L23.5299 38.6333C23.2159 38.9325 22.2299 39.7776 20.8858 40.0907C20.872 40.0962 20.8555 40.099 20.839 40.1018C20.7536 40.1212 20.6682 40.1378 20.5828 40.1517C20.5277 40.16 20.4699 40.1655 20.4148 40.1738C20.3597 40.1794 20.3046 40.1877 20.2468 40.196C20.1284 40.2043 20.0099 40.2098 19.8887 40.2098C19.7896 40.2098 19.6877 40.2043 19.5913 40.196C19.5307 40.1905 19.4701 40.1849 19.4123 40.1794C19.382 40.1738 19.3489 40.1738 19.3214 40.1683C18.4538 40.0491 17.6413 39.6723 16.9968 39.2318C16.9692 39.2124 16.9444 39.1957 16.9197 39.1763C16.8976 39.1625 16.8783 39.1459 16.8591 39.1348C16.5781 38.9298 16.3688 38.7441 16.2531 38.6333L15.6555 38.0625L15.0578 38.6333C14.6694 39.0018 13.262 40.2071 11.4139 40.2071C9.94589 40.2071 8.57152 39.3925 7.77829 38.6333L7.17787 38.0625L6.58019 38.6333C6.19184 39.0018 4.78166 40.2071 2.93631 40.2071H2.92805C2.82339 40.2071 2.71873 40.2015 2.61682 40.1932C2.55623 40.1877 2.49563 40.1821 2.43504 40.1766C2.4075 40.1711 2.37996 40.1711 2.35241 40.1655C1.29753 40.0159 0.325282 39.4894 -0.363281 38.9297V41.0854C-0.178746 41.1935 0.0195598 41.296 0.226129 41.393C0.936726 41.7144 1.73546 41.9554 2.58377 42.0025C2.6664 42.0081 2.75453 42.0081 2.83992 42.0109C2.87021 42.0109 2.90051 42.0109 2.93081 42.0109C3.87001 42.0109 4.71832 41.7864 5.43993 41.4816C6.16155 41.1741 6.75096 40.7862 7.17236 40.462C8.01516 41.1103 9.53 42.0109 11.4084 42.0109C13.284 42.0109 14.8016 41.1103 15.6472 40.462C16.2118 40.8942 17.0739 41.4401 18.1453 41.7559C18.6769 41.9111 19.258 42.0136 19.8832 42.0136C19.9989 42.0136 20.1173 42.0081 20.233 42.0025C20.6572 41.9776 21.0703 41.9056 21.4642 41.8003C21.858 41.6922 22.2326 41.5509 22.5879 41.393C23.2186 41.102 23.7364 40.7585 24.122 40.4648C24.5104 40.764 25.0447 41.1159 25.6892 41.4096C25.703 41.4151 25.714 41.4207 25.7278 41.4262C25.8076 41.4622 25.893 41.4983 25.9756 41.5315C25.9894 41.537 26.0004 41.5426 26.0142 41.5454C26.6973 41.8197 27.4877 42.0136 28.3581 42.0136H28.3966C29.1403 42.0136 29.8288 41.8695 30.4403 41.659H30.4458C30.5422 41.6257 30.6358 41.5897 30.7295 41.5537C30.7515 41.5426 30.7736 41.5343 30.7956 41.526C30.87 41.4927 30.9416 41.465 31.0132 41.4345C31.0297 41.4262 31.049 41.4207 31.0655 41.4124C31.2748 41.3154 31.4731 41.2156 31.6577 41.1104V38.963C31.4952 39.0905 31.2969 39.2345 31.0655 39.3786V39.3731H31.071Z" fill="black"/>
<path d="M31.071 34.6516V34.646C30.3356 35.1115 29.3992 35.4745 28.3829 35.48C27.3665 35.4745 26.4273 35.1115 25.6947 34.646V34.6516C25.2265 34.3579 24.8877 34.0614 24.7252 33.9062L24.1275 33.3354L23.5299 33.9062C23.2159 34.2055 22.2299 35.0506 20.8858 35.3637C20.872 35.3692 20.8555 35.372 20.839 35.3747C20.7536 35.3941 20.6682 35.4108 20.5828 35.4246C20.5277 35.4329 20.4699 35.4385 20.4148 35.4468C20.3597 35.4523 20.3046 35.4606 20.2468 35.4689C20.1284 35.4773 20.0099 35.4828 19.8887 35.4828C19.7896 35.4828 19.6877 35.4773 19.5913 35.4689C19.5307 35.4662 19.4701 35.4579 19.4123 35.4523C19.382 35.4468 19.3489 35.4468 19.3214 35.4412C18.4538 35.3221 17.6413 34.9453 16.9968 34.5047C16.9692 34.4853 16.9444 34.4687 16.9197 34.4493C16.8976 34.4354 16.8783 34.4188 16.8591 34.4077C16.5781 34.2027 16.3688 34.0171 16.2531 33.9062L15.6555 33.3354L15.0578 33.9062C14.6694 34.2747 13.262 35.48 11.4139 35.48C9.94589 35.48 8.57152 34.6654 7.77829 33.9062L7.17787 33.3354L6.58019 33.9062C6.19184 34.2747 4.78166 35.48 2.93631 35.48H2.92805C2.82339 35.48 2.71873 35.4745 2.61682 35.4662C2.55623 35.4606 2.49563 35.4551 2.43504 35.4496C2.4075 35.444 2.37996 35.444 2.35241 35.4385C1.29753 35.2888 0.325282 34.7624 -0.363281 34.2027V36.3611C-0.178746 36.4692 0.0195598 36.5717 0.226129 36.6687C0.936726 36.9901 1.73546 37.2312 2.58377 37.2783C2.6664 37.2838 2.75453 37.2838 2.83992 37.2866C2.87021 37.2866 2.90051 37.2866 2.93081 37.2866C3.87001 37.2866 4.71832 37.0621 5.43993 36.7574C6.16155 36.4498 6.75096 36.0619 7.17236 35.7377C8.01516 36.3861 9.53 37.2866 11.4084 37.2866C13.284 37.2866 14.8016 36.3861 15.6472 35.7377C16.2118 36.1699 17.0739 36.7158 18.1453 37.0317C18.6769 37.1868 19.258 37.2893 19.8832 37.2893C19.9989 37.2893 20.1173 37.2838 20.233 37.2783C20.6572 37.2533 21.0703 37.1813 21.4642 37.076C21.858 36.9679 22.2326 36.8266 22.5879 36.6687C23.2186 36.3778 23.7364 36.0314 24.122 35.7405C24.5104 36.0397 25.0447 36.3916 25.6892 36.6853C25.703 36.6909 25.714 36.6964 25.7278 36.7019C25.8076 36.738 25.893 36.774 25.9756 36.8072C25.9894 36.8128 26.0004 36.8183 26.0142 36.8211C26.6973 37.0954 27.4877 37.2893 28.3581 37.2893H28.3966C29.1403 37.2893 29.8288 37.1453 30.4403 36.9347H30.4458C30.5422 36.9014 30.6358 36.8654 30.7295 36.8294C30.7515 36.8183 30.7736 36.81 30.7956 36.8017C30.87 36.7684 30.9416 36.7407 31.0132 36.7103C31.0297 36.7019 31.049 36.6964 31.0655 36.6881C31.2748 36.5911 31.4731 36.4914 31.6577 36.3861V34.2387C31.4952 34.3662 31.2969 34.5103 31.0655 34.6543" fill="black"/>
<path d="M7.17034 31.0163C8.01314 31.6646 9.52798 32.5651 11.4064 32.5651C13.282 32.5651 14.7996 31.6646 15.6452 31.0163C16.2098 31.4485 17.0719 31.9944 18.1433 32.3102C18.6749 32.4654 19.2588 32.5679 19.8812 32.5679C19.9969 32.5679 20.1153 32.5624 20.231 32.5568C20.6552 32.5319 21.0683 32.4598 21.4622 32.3546C21.856 32.2465 22.2306 32.1052 22.5859 31.9473C23.2166 31.6563 23.7344 31.31 24.12 31.019C24.5084 31.3183 25.0427 31.6702 25.6872 31.9639C25.701 31.9694 25.712 31.975 25.7257 31.9805C25.8084 32.0165 25.891 32.0525 25.9736 32.0858C25.9874 32.0913 25.9984 32.0969 26.0122 32.0996C26.5713 32.3241 27.202 32.4931 27.8906 32.5485V30.7309C27.0616 30.6367 26.3014 30.3208 25.6899 29.9301C25.2217 29.6364 24.8829 29.3372 24.7204 29.1848L24.1228 28.614L23.5251 29.1848C23.2111 29.484 22.2251 30.3291 20.881 30.6422C20.8672 30.6478 20.8507 30.6505 20.8342 30.6533C20.7488 30.6727 20.6634 30.6893 20.578 30.7032C20.523 30.7115 20.4651 30.717 20.41 30.7253C20.3549 30.7337 20.2999 30.7392 20.242 30.7475C20.1236 30.7558 20.0052 30.7614 19.884 30.7614C19.7848 30.7614 19.6829 30.7558 19.5865 30.7503C19.5259 30.7447 19.4653 30.7392 19.4075 30.7337C19.3772 30.7309 19.3441 30.7281 19.3166 30.7226C18.449 30.6034 17.6365 30.2266 16.992 29.786C16.9645 29.7667 16.9397 29.75 16.9149 29.7306C16.8929 29.7168 16.8736 29.7002 16.8543 29.6891C16.5734 29.484 16.364 29.2984 16.2484 29.1876L15.6507 28.6168L15.053 29.1876C14.6647 29.5561 13.2572 30.7614 11.4091 30.7614C9.94112 30.7614 8.56674 29.9468 7.77352 29.1876L7.17309 28.6168L6.57542 29.1876C6.22012 29.5256 5.01376 30.5591 3.40527 30.7364V32.5513C4.15718 32.4903 4.84575 32.2908 5.44067 32.0387C6.16228 31.7311 6.75169 31.3432 7.17309 31.019" fill="black"/>
<path d="M24.1352 18.8611C24.4547 18.1434 25.3278 17.7251 25.7877 17.545C25.8758 18.0437 25.9722 19.0412 25.5013 19.6868C25.2369 20.0497 24.8127 20.2575 24.2398 20.3074C24.1985 20.2243 24.1655 20.1412 24.1352 20.0608C24.1352 20.0608 24.1352 20.0553 24.1352 20.0525C23.9837 19.6314 23.9754 19.2434 24.1186 18.8943C24.1241 18.8832 24.1297 18.8722 24.1352 18.8611C24.1352 18.8611 24.1352 18.8611 24.1352 18.8555V18.8611ZM22.243 12.1503V26.7079H24.1241V22.4243C25.2341 22.2553 26.0989 21.7648 26.6746 20.9696C28.093 19.019 27.253 15.9573 27.2144 15.8271L27.0767 15.3394L26.592 15.4724C26.5093 15.4946 25.2561 15.852 24.1214 16.6694C24.1214 16.6694 24.1214 16.6694 24.1214 16.6722V12.1503H22.2402H22.243Z" fill="black"/>
<path d="M20.3587 12.1559H18.4775V26.7135H20.3587V12.1559Z" fill="black"/>
<path d="M10.4277 23.8982C10.1633 24.2612 9.73911 24.469 9.16623 24.5189C9.12491 24.4357 9.09186 24.3526 9.06157 24.275C9.06157 24.275 9.06157 24.2695 9.06157 24.2667C8.91008 23.8456 8.90182 23.4577 9.04504 23.1085C9.05055 23.0975 9.0533 23.0864 9.06157 23.0753C9.06157 23.0725 9.06157 23.0725 9.06157 23.0698C9.3783 22.3521 10.2542 21.9337 10.7169 21.7564C10.805 22.2551 10.9014 23.2526 10.4277 23.8982ZM7.16939 16.8688C7.16939 16.8688 7.16939 16.8743 7.16939 16.8771C7.1391 16.9574 7.10329 17.0405 7.06473 17.1237C6.49185 17.0738 6.06769 16.866 5.80328 16.503C5.32955 15.8574 5.42595 14.8572 5.51409 14.3584C5.97405 14.5385 6.8499 14.9569 7.16939 15.6746C7.16939 15.6746 7.16939 15.6746 7.16939 15.6801C7.17766 15.6884 7.18041 15.7023 7.18592 15.7133C7.32914 16.0625 7.32088 16.4531 7.16939 16.8715M12.1463 20.0441L12.0086 19.5564L11.5239 19.6894C11.4412 19.7116 10.2046 20.0524 9.06983 20.8725V20.8642V12.1584H7.16939V13.4856C6.03464 12.6655 4.78972 12.3136 4.70709 12.2942L4.22234 12.1612L4.08463 12.6489C4.04607 12.7791 3.20602 15.8436 4.62446 17.7914C5.20286 18.5866 6.05667 19.0743 7.16664 19.2461V26.7189H7.99567L8.30415 26.7105C8.56855 26.7022 8.81919 26.6828 9.05881 26.644C10.1688 26.475 11.0226 25.9846 11.601 25.1894C13.0194 23.2388 12.1794 20.1771 12.1408 20.0468" fill="black"/>
</g>
</g>
<defs>
<clipPath id="clip0_342_290">
<rect width="84" height="42" fill="white"/>
</clipPath>
<clipPath id="clip1_342_290">
<rect width="84" height="42" fill="white"/>
</clipPath>
</defs>
</svg>
