<svg width="239" height="35" viewBox="0 0 239 35" fill="none" xmlns="http://www.w3.org/2000/svg">
<path d="M1.80433 8.20309L0 10.0503L23.4627 34.0872L25.2671 32.24L1.80433 8.20309Z" fill="black"/>
<path d="M12.638 11.8964L10.8294 13.7486L5.41401 8.20257L3.6123 6.35038L5.41401 4.50171L7.22259 6.35038L12.638 11.8964Z" fill="black"/>
<path d="M28.882 28.5381L27.0769 30.3868L25.2752 28.5381L12.6357 15.5974L14.4443 13.7452L27.0769 26.693L28.882 28.5381Z" fill="black"/>
<path d="M32.4921 24.8407L30.6869 26.6929L25.2715 21.1433L27.0766 19.2947L32.4921 24.8407Z" fill="black"/>
<path d="M25.2731 17.446L23.4645 19.2947L7.22168 2.65664L9.02682 0.804443L10.8285 2.65664L25.2731 17.446Z" fill="black"/>
<path d="M16.2457 0.80539L14.4414 2.65259L34.2943 22.9913L36.0986 21.1441L16.2457 0.80539Z" fill="black"/>
<path d="M27.0758 4.50461L25.2715 6.35181L30.685 11.8978L32.4894 10.0506L27.0758 4.50461Z" fill="black"/>
<path d="M34.2936 11.9037L32.4893 13.7509L37.9028 19.2969L39.7071 17.4497L34.2936 11.9037Z" fill="black"/>
<path d="M30.6852 0.810149L28.8809 2.65735L41.5141 15.5997L43.3184 13.7525L30.6852 0.810149Z" fill="black"/>
<path d="M37.903 0.806365L36.0986 2.65356L45.122 11.8978L46.9263 10.0506L37.903 0.806365Z" fill="black"/>
<path d="M56.2492 24.4603H54.1621V5.46301H56.2492V13.9246H56.2801C56.8853 11.1041 58.7626 9.70968 61.3036 9.70968C65.1786 9.70968 66.4199 12.3119 66.4199 15.4106V24.4603H64.3328V15.8754C64.3328 13.738 63.456 11.6605 60.5815 11.6605C57.8893 11.6605 56.2561 13.2098 56.2561 15.8754V24.4603H56.2492Z" fill="black"/>
<path d="M68.1406 17.3016C68.1406 12.5303 71.077 9.70972 75.2202 9.70972C79.3634 9.70972 81.6671 12.407 81.6671 16.4037C81.6671 16.7452 81.6672 17.3333 81.6053 17.9213H70.2587C70.4718 21.0834 72.2873 22.8793 75.2821 22.8793C78.0672 22.8793 79.1847 21.3933 79.7004 19.5306L81.5778 20.0869C80.8523 22.999 78.7652 24.7984 75.2821 24.7984C70.8948 24.7984 68.1406 21.9779 68.1406 17.2981V17.3016ZM70.2896 16.1537H79.7004C79.5491 13.2416 78.0672 11.5971 75.1618 11.5971C72.4386 11.5971 70.6231 13.1465 70.2896 16.1537Z" fill="black"/>
<path d="M92.6825 20.7419H92.6516C91.9845 23.4709 89.9868 24.7703 87.5078 24.7703C84.6642 24.7703 82.9072 23.4392 82.9072 20.7419C82.9072 18.3545 84.5129 16.4952 87.8103 16.4952H92.6825V15.5339C92.6825 12.9916 91.7748 11.5971 89.2338 11.5971C86.9954 11.5971 85.7851 12.6817 85.3588 15.3473L83.3611 15.0057C83.8459 11.5338 85.8436 9.73792 89.2923 9.73792C93.0745 9.73792 94.7386 11.7838 94.7386 15.4706V24.4569H92.6791V20.7384L92.6825 20.7419ZM92.6825 19.1609V18.2312H88.0235C86.0568 18.2312 84.9668 19.0376 84.9668 20.5553C84.9668 21.7314 85.7542 22.9427 87.9616 22.9427C90.898 22.9427 92.6825 21.33 92.6825 19.1609Z" fill="black"/>
<path d="M97.4033 24.4603V10.0513H99.4904V14.2345H99.5523C100.068 11.2908 101.488 10.0513 103.819 10.0513H104.789V12.3753H103.641C100.824 12.3753 99.4938 13.5514 99.4938 16.5586V24.4603H97.4068H97.4033Z" fill="black"/>
<path d="M108.421 11.9388H106.151V10.0479H108.421V5.92444H110.508V10.0479H115.26V11.9388H110.508V20.0589C110.508 21.8547 111.175 22.7562 112.866 22.7562C113.654 22.7562 114.29 22.6329 115.105 22.3829L115.407 24.3337C114.469 24.6436 113.681 24.7985 112.502 24.7985C109.686 24.7985 108.417 22.9076 108.417 20.242V11.9353L108.421 11.9388Z" fill="black"/>
<path d="M126.183 24.8018C122.944 24.8018 121.28 22.7242 121.129 19.9354H121.039L119.527 28.7984H117.921L121.129 10.111H122.735L121.947 14.5725H121.978C122.975 11.8153 124.884 9.80115 128.061 9.80115C132.266 9.80115 134.054 13.0231 133.266 17.8261C132.51 22.196 129.938 24.7983 126.187 24.7983L126.183 24.8018ZM131.692 17.643C132.386 13.583 131.055 11.3188 127.696 11.3188C124.519 11.3188 122.157 13.4245 121.521 17.2064V17.143L121.459 17.4212L121.49 17.3578C120.854 20.9213 122.762 23.3088 125.97 23.3088C129.178 23.3088 131.055 21.2312 131.688 17.636L131.692 17.643Z" fill="black"/>
<path d="M134.175 24.4604L136.657 10.1112H138.263L137.596 14.0797H137.627C138.597 11.4458 140.261 10.1112 142.681 10.1112H143.709L143.407 11.8472H142.348C139.411 11.8472 137.747 13.1501 137.173 16.3403L135.781 24.4604H134.175Z" fill="black"/>
<path d="M142.587 16.5585C143.343 11.9421 146.338 9.80115 150.151 9.80115C154.508 9.80115 157.141 13.1781 156.326 17.8578C155.57 22.2594 152.785 24.7983 148.669 24.7983C144.069 24.7983 141.768 21.2347 142.587 16.555V16.5585ZM144.131 16.7768C143.525 20.4037 145.128 23.2524 148.821 23.2524C152.029 23.2524 154.178 21.1749 154.783 17.5797C155.419 13.9527 153.541 11.3188 149.972 11.3188C146.885 11.3188 144.736 13.1781 144.131 16.7733V16.7768Z" fill="black"/>
<path d="M164.768 24.8018C161.529 24.8018 159.865 22.7242 159.714 19.9354H159.624L158.112 28.7984H156.506L159.714 10.111H161.32L160.532 14.5725H160.563C161.56 11.8153 163.469 9.80115 166.646 9.80115C170.851 9.80115 172.639 13.0231 171.851 17.8261C171.095 22.196 168.523 24.7983 164.772 24.7983L164.768 24.8018ZM170.277 17.643C170.971 13.583 169.64 11.3188 166.281 11.3188C163.104 11.3188 160.742 13.4245 160.106 17.2064V17.143L160.044 17.4212L160.075 17.3578C159.439 20.9213 161.347 23.3088 164.555 23.3088C167.763 23.3088 169.64 21.2312 170.273 17.636L170.277 17.643Z" fill="black"/>
<path d="M173.031 17.055C173.818 12.4985 177.236 9.80469 181.201 9.80469C185.165 9.80469 187.252 12.502 186.557 16.5303C186.496 16.7768 186.406 17.305 186.286 17.7698H174.575C174.152 21.2101 175.785 23.2877 179.055 23.2877C182.019 23.2877 183.535 21.6467 184.47 19.6009L185.863 20.1291C184.622 23.0729 182.232 24.7772 178.873 24.7772C174.485 24.7772 172.216 21.8651 173.031 17.0585V17.055ZM174.815 16.3437H185.076C185.44 13.1816 184.199 11.2907 180.96 11.2907C178.023 11.2907 175.696 13.0583 174.815 16.3437Z" fill="black"/>
<path d="M187.224 24.4604L189.706 10.1112H191.312L190.645 14.0797H190.676C191.645 11.4458 193.31 10.1112 195.73 10.1112H196.758L196.456 11.8472H195.397C192.46 11.8472 190.796 13.1501 190.222 16.3403L188.829 24.4604H187.224Z" fill="black"/>
<path d="M200.328 11.6007H197.907L198.148 10.1148H200.569L201.294 5.89978H202.896L202.171 10.1148H207.163L206.923 11.6007H201.93L200.417 20.3089C200.115 22.0765 200.871 23.221 202.446 23.221C203.292 23.221 203.869 23.0977 204.836 22.8477L204.897 24.3337C203.928 24.6119 203.202 24.7985 202.233 24.7985C199.42 24.7985 198.389 22.816 198.873 20.1187L200.324 11.5972L200.328 11.6007Z" fill="black"/>
<path d="M206.953 24.4603L209.405 10.1111H211.01L208.559 24.4603H206.957H206.953ZM209.618 7.4138L209.951 5.46301H212.1L211.767 7.4138H209.618Z" fill="black"/>
<path d="M212.248 17.055C213.035 12.4985 216.453 9.80469 220.417 9.80469C224.382 9.80469 226.469 12.502 225.774 16.5303C225.712 16.7768 225.623 17.305 225.503 17.7698H213.792C213.369 21.2101 215.002 23.2877 218.272 23.2877C221.236 23.2877 222.752 21.6467 223.687 19.6009L225.08 20.1291C223.838 23.0729 221.449 24.7772 218.09 24.7772C213.702 24.7772 211.433 21.8651 212.248 17.0585V17.055ZM214.032 16.3437H224.292C224.657 13.1816 223.416 11.2907 220.177 11.2907C217.24 11.2907 214.912 13.0583 214.032 16.3437Z" fill="black"/>
<path d="M226.051 19.6255L227.626 19.4072C227.808 21.608 228.987 23.344 232.226 23.344C234.434 23.344 235.616 22.5059 235.857 21.0833C236.16 19.4706 235.314 18.5727 232.195 17.8614C228.595 17.055 227.536 15.3507 227.959 13.1499C228.324 11.0723 229.988 9.80469 232.983 9.80469C236.524 9.80469 237.944 11.8506 238.188 14.4528L236.555 14.6711C236.373 12.4386 235.224 11.2308 232.893 11.2308C230.865 11.2308 229.716 12.0055 229.503 13.3365C229.231 14.7943 230.108 15.9071 232.769 16.4669C236.493 17.2416 237.793 18.8544 237.459 21.1467C237.126 23.4708 235.341 24.8018 232.133 24.8018C227.987 24.8018 226.261 22.6644 226.051 19.6255Z" fill="black"/>
</svg>
