<svg width="196" height="33" viewBox="0 0 196 33" fill="none" xmlns="http://www.w3.org/2000/svg">
<g clip-path="url(#clip0_342_315)">
<path d="M1.8752 7.33575L-0.000976562 9.16724L24.396 32.9997L26.2722 31.1682L1.8752 7.33575Z" fill="black"/>
<path d="M13.139 10.9977L11.2584 12.8341L5.62735 7.33528L3.75391 5.49884L5.62735 3.66589L7.50794 5.49884L13.139 10.9977Z" fill="black"/>
<path d="M30.0289 27.4976L28.1519 29.3306L26.2784 27.4976L13.1357 14.667L15.0163 12.8306L28.1519 25.6682L30.0289 27.4976Z" fill="black"/>
<path d="M33.7825 23.8317L31.9055 25.6682L26.2744 20.1658L28.1514 18.3329L33.7825 23.8317Z" fill="black"/>
<path d="M26.278 16.5L24.3974 18.3329L7.50781 1.83644L9.38483 0L11.2583 1.83644L26.278 16.5Z" fill="black"/>
<path d="M16.8898 0.000790927L15.0137 1.83228L35.6571 21.998L37.5332 20.1665L16.8898 0.000790927Z" fill="black"/>
<path d="M28.1525 3.66864L26.2764 5.50012L31.9055 10.999L33.7816 9.16748L28.1525 3.66864Z" fill="black"/>
<path d="M35.6574 11.0047L33.7812 12.8362L39.4103 18.335L41.2865 16.5035L35.6574 11.0047Z" fill="black"/>
<path d="M31.9055 0.00554984L30.0293 1.83704L43.1655 14.6693L45.0417 12.8378L31.9055 0.00554984Z" fill="black"/>
<path d="M39.4104 0.0020098L37.5342 1.8335L46.9168 10.9991L48.793 9.16757L39.4104 0.0020098Z" fill="black"/>
<path d="M58.4876 23.4547H56.3174V4.61902H58.4876V13.0087H58.5197C59.149 10.2121 61.1011 8.82956 63.7432 8.82956C67.7726 8.82956 69.0632 11.4096 69.0632 14.482V23.4547H66.893V14.9429C66.893 12.8236 65.9813 10.7637 62.9924 10.7637C60.193 10.7637 58.4911 12.2999 58.4911 14.9429V23.4547H58.4876Z" fill="black"/>
<path d="M70.8545 16.3569C70.8545 11.6261 73.9078 8.82959 78.216 8.82959C82.5242 8.82959 84.9196 11.5039 84.9196 15.4666C84.9196 15.8053 84.9196 16.3883 84.8553 16.9714H73.0569C73.2785 20.1066 75.1663 21.8871 78.2803 21.8871C81.1763 21.8871 82.3383 20.4138 82.8746 18.5669L84.8267 19.1185C84.0723 22.0058 81.9021 23.7899 78.2803 23.7899C73.7183 23.7899 70.8545 20.9934 70.8545 16.3534V16.3569ZM73.089 15.2187H82.8746C82.7172 12.3314 81.1763 10.7009 78.1552 10.7009C75.3236 10.7009 73.4358 12.2371 73.089 15.2187Z" fill="black"/>
<path d="M96.3715 19.7679H96.3394C95.6457 22.4737 93.5685 23.762 90.9907 23.762C88.034 23.762 86.207 22.4423 86.207 19.7679C86.207 17.4008 87.8731 15.5574 91.3054 15.5574H96.3715V14.6043C96.3715 12.0835 95.4277 10.701 92.7855 10.701C90.458 10.701 89.1995 11.7763 88.7562 14.4192L86.679 14.0806C87.1831 10.6381 89.2603 8.85754 92.8463 8.85754C96.7791 8.85754 98.5095 10.886 98.5095 14.5414V23.4513H96.3715V19.7644V19.7679ZM96.3715 18.2003V17.2786H91.527C89.482 17.2786 88.3486 18.0781 88.3486 19.5829C88.3486 20.749 89.1674 21.95 91.4627 21.95C94.516 21.95 96.3715 20.351 96.3715 18.2003Z" fill="black"/>
<path d="M101.28 23.4547V9.16821H103.45V13.3159H103.515C104.051 10.3972 105.528 9.16821 107.952 9.16821H108.96V11.4725H107.766C104.838 11.4725 103.454 12.6386 103.454 15.6202V23.4547H101.284H101.28Z" fill="black"/>
<path d="M112.736 11.0396H110.376V9.16476H112.736V5.07642H114.906V9.16476H119.847V11.0396H114.906V19.0906C114.906 20.8712 115.599 21.7649 117.362 21.7649C118.181 21.7649 118.842 21.6428 119.69 21.3949L120.004 23.3291C119.028 23.6363 118.209 23.7899 116.983 23.7899C114.055 23.7899 112.736 21.9151 112.736 19.2721V11.0361V11.0396Z" fill="black"/>
<path d="M125.042 23.4547H123.372L126.772 4.61902H128.438L126.929 13.0087H126.962C128.063 10.3343 130.204 8.92033 132.782 8.92033C136.779 8.92033 138.006 11.6261 137.441 14.6985L135.868 23.4547H134.202L135.743 14.9429C136.15 12.7014 135.585 10.4251 132.314 10.4251C129.293 10.4251 127.123 12.0835 126.586 14.9429L125.045 23.4547H125.042Z" fill="black"/>
<path d="M139.296 15.6201C140.083 11.043 143.197 8.92029 147.162 8.92029C151.692 8.92029 154.431 12.2685 153.583 16.9084C152.797 21.2726 149.901 23.7898 145.621 23.7898C140.837 23.7898 138.445 20.2566 139.296 15.6166V15.6201ZM140.902 15.8366C140.272 19.4327 141.939 22.2571 145.778 22.2571C149.114 22.2571 151.349 20.1973 151.978 16.6326C152.639 13.0366 150.687 10.425 146.976 10.425C143.765 10.425 141.531 12.2685 140.902 15.8331V15.8366Z" fill="black"/>
<path d="M157.641 10.7045H155.124L155.378 9.23112H157.895L158.649 5.052H160.319L159.565 9.23112H164.756L164.502 10.7045H159.311L157.738 19.3385C157.423 21.0911 158.209 22.2258 159.847 22.2258C160.726 22.2258 161.327 22.1036 162.332 21.8557L162.396 23.3291C161.388 23.6049 160.634 23.7899 159.625 23.7899C156.701 23.7899 155.628 21.8243 156.132 19.15L157.641 10.701V10.7045Z" fill="black"/>
<path d="M164.184 16.1125C165.003 11.5947 168.557 8.92383 172.679 8.92383C176.801 8.92383 178.971 11.5982 178.249 15.5923C178.185 15.8367 178.092 16.3603 177.967 16.8212H165.789C165.35 20.2322 167.048 22.2921 170.448 22.2921C173.53 22.2921 175.106 20.6652 176.079 18.6367L177.527 19.1604C176.236 22.0791 173.751 23.7689 170.258 23.7689C165.696 23.7689 163.337 20.8816 164.184 16.116V16.1125ZM166.04 15.4072H176.708C177.084 12.272 175.796 10.3972 172.429 10.3972C169.375 10.3972 166.955 12.1498 166.04 15.4072Z" fill="black"/>
<path d="M180.612 23.4547H178.946L182.346 4.61902H184.012L180.612 23.4547Z" fill="black"/>
<path d="M183.379 18.6611L185.016 18.4447C185.206 20.6268 186.432 22.348 189.8 22.348C192.099 22.348 193.325 21.517 193.576 20.1065C193.89 18.5075 193.011 17.6172 189.768 16.912C186.025 16.1125 184.923 14.4227 185.363 12.2406C185.742 10.1807 187.473 8.92383 190.587 8.92383C194.269 8.92383 195.746 10.9523 196 13.5324L194.301 13.7488C194.112 11.5353 192.918 10.3378 190.494 10.3378C188.384 10.3378 187.19 11.1059 186.968 12.4256C186.686 13.871 187.598 14.9743 190.365 15.5294C194.237 16.2975 195.588 17.8965 195.242 20.1694C194.895 22.4737 193.039 23.7934 189.704 23.7934C185.392 23.7934 183.601 21.6741 183.379 18.6611Z" fill="black"/>
</g>
<defs>
<clipPath id="clip0_342_315">
<rect width="196" height="33" fill="white"/>
</clipPath>
</defs>
</svg>
